# Blender v3.4.1 OBJ File: ''
# www.blender.org
mtllib bed1.mtl
o Cube.001
v 2.490313 0.202147 3.297085
v 2.490313 0.202147 3.089429
v 2.490313 0.688213 3.089429
v 2.490313 0.688213 3.297085
v 2.490313 0.004546 3.297085
v 1.484460 0.202147 3.297085
v 1.484460 0.004546 3.297085
v 1.484460 0.004546 3.089429
v 1.484460 0.202147 3.089429
v 1.484460 0.202147 1.297085
v 1.484460 0.004546 1.297085
v 2.490313 0.004546 3.089429
v 2.490313 0.202147 1.297085
v 2.490313 0.004546 1.297085
v 1.484460 0.688213 3.089429
v 1.484460 0.688213 3.297085
vt 0.625000 0.750000
vt 0.625000 0.724043
vt 0.625000 0.724043
vt 0.625000 0.750000
vt 0.375000 0.750000
vt 0.625000 1.000000
vt 0.375000 1.000000
vt 0.375000 0.025957
vt 0.625000 0.025957
vt 0.625000 0.250000
vt 0.375000 0.250000
vt 0.125000 0.724043
vt 0.375000 0.724043
vt 0.125000 0.750000
vt 0.625000 0.500000
vt 0.375000 0.500000
vt 0.125000 0.500000
vt 0.375000 0.000000
vt 0.625000 0.000000
vt 0.875000 0.500000
vt 0.875000 0.724043
vt 0.875000 0.724043
vt 0.875000 0.750000
vt 0.625000 0.000000
vt 0.625000 0.025957
vt 0.625000 1.000000
vn 1.0000 0.0000 0.0000
vn 0.0000 0.0000 1.0000
vn -1.0000 -0.0000 0.0000
vn 0.0000 -1.0000 -0.0000
vn 0.0000 0.0000 -1.0000
vn 0.0000 1.0000 0.0000
usemtl Material.001
s 1
f 1/1/1 2/2/1 3/3/1 4/4/1
f 5/5/2 1/1/2 6/6/2 7/7/2
f 8/8/3 9/9/3 10/10/3 11/11/3
f 8/12/4 12/13/4 5/5/4 7/14/4
f 12/13/1 2/2/1 1/1/1 5/5/1
f 11/11/5 10/10/5 13/15/5 14/16/5
f 14/16/1 13/15/1 2/2/1 12/13/1
f 11/17/4 14/16/4 12/13/4 8/12/4
f 7/18/3 6/19/3 9/9/3 8/8/3
f 13/15/6 10/20/6 9/21/6 2/2/6
f 3/3/6 15/22/6 16/23/6 4/4/6
f 9/9/3 6/19/3 16/24/3 15/25/3
f 2/2/5 9/21/5 15/22/5 3/3/5
f 6/6/2 1/1/2 4/4/2 16/26/2
