# Blender 3.4.1
# www.blender.org
mtllib candle.mtl
o Cylinder.001
v -5.356616 1.396374 -0.281406
v -5.301715 1.396374 -0.275999
v -5.248927 1.396374 -0.259985
v -5.200274 1.396374 -0.233980
v -5.157631 1.396374 -0.198984
v -5.122635 1.396374 -0.156341
v -5.096631 1.396374 -0.107689
v -5.080616 1.396374 -0.054900
v -5.075210 1.396374 0.000000
v -5.080616 1.396374 0.054900
v -5.096631 1.396374 0.107689
v -5.122635 1.396374 0.156341
v -5.157631 1.396374 0.198984
v -5.200274 1.396374 0.233980
v -5.248927 1.396374 0.259985
v -5.301716 1.396374 0.275999
v -5.356616 1.396374 0.281406
v -5.411516 1.396374 0.275999
v -5.464304 1.396374 0.259985
v -5.512957 1.396374 0.233980
v -5.555600 1.396374 0.198984
v -5.590596 1.396374 0.156341
v -5.616601 1.396374 0.107689
v -5.632615 1.396374 0.054899
v -5.638021 1.396374 0.000000
v -5.632615 1.396374 -0.054900
v -5.616601 1.396374 -0.107690
v -5.590596 1.396374 -0.156341
v -5.555600 1.396374 -0.198984
v -5.512956 1.396374 -0.233981
v -5.464304 1.396374 -0.259985
v -5.411515 1.396374 -0.275999
v -5.314218 1.935091 -0.213151
v -5.356616 1.935091 -0.217327
v -5.273448 1.935091 -0.200784
v -5.235875 1.935091 -0.180701
v -5.202941 1.935091 -0.153674
v -5.175915 1.935091 -0.120741
v -5.155831 1.935091 -0.083168
v -5.143465 1.935091 -0.042398
v -5.139288 1.935091 0.000000
v -5.143465 1.935091 0.042398
v -5.155831 1.935091 0.083168
v -5.175915 1.935091 0.120741
v -5.202941 1.935091 0.153674
v -5.235875 1.935091 0.180701
v -5.273448 1.935091 0.200784
v -5.314218 1.935091 0.213151
v -5.356616 1.935091 0.217327
v -5.399014 1.935091 0.213151
v -5.439784 1.935091 0.200784
v -5.477356 1.935091 0.180701
v -5.510290 1.935091 0.153674
v -5.537316 1.935091 0.120740
v -5.557400 1.935091 0.083167
v -5.569767 1.935091 0.042398
v -5.573943 1.935091 0.000000
v -5.569767 1.935091 -0.042399
v -5.557400 1.935091 -0.083168
v -5.537316 1.935091 -0.120741
v -5.510289 1.935091 -0.153674
v -5.477355 1.935091 -0.180701
v -5.439783 1.935091 -0.200784
v -5.399014 1.935091 -0.213152
v -5.356616 1.949649 -0.281406
v -5.356616 1.955815 -0.272441
v -5.303464 1.955815 -0.267206
v -5.301715 1.949649 -0.275999
v -5.252357 1.955815 -0.251703
v -5.248927 1.949649 -0.259985
v -5.205256 1.955815 -0.226526
v -5.200274 1.949649 -0.233980
v -5.163970 1.955815 -0.192645
v -5.157631 1.949649 -0.198984
v -5.130090 1.955815 -0.151360
v -5.122635 1.949649 -0.156341
v -5.104913 1.955815 -0.104259
v -5.096631 1.949649 -0.107689
v -5.089409 1.955815 -0.053151
v -5.080616 1.949649 -0.054900
v -5.084175 1.955815 0.000000
v -5.075210 1.949649 0.000000
v -5.089409 1.955815 0.053151
v -5.080616 1.949649 0.054900
v -5.104913 1.955815 0.104259
v -5.096631 1.949649 0.107689
v -5.130090 1.955815 0.151360
v -5.122635 1.949649 0.156341
v -5.163970 1.955815 0.192645
v -5.157631 1.949649 0.198984
v -5.205256 1.955815 0.226526
v -5.200274 1.949649 0.233980
v -5.252357 1.955815 0.251703
v -5.248927 1.949649 0.259985
v -5.303464 1.955815 0.267206
v -5.301716 1.949649 0.275999
v -5.356616 1.955815 0.272441
v -5.356616 1.949649 0.281406
v -5.409767 1.955815 0.267206
v -5.411516 1.949649 0.275999
v -5.460875 1.955815 0.251703
v -5.464304 1.949649 0.259985
v -5.507976 1.955815 0.226526
v -5.512957 1.949649 0.233980
v -5.549261 1.955815 0.192645
v -5.555600 1.949649 0.198984
v -5.583143 1.955815 0.151360
v -5.590596 1.949649 0.156341
v -5.608318 1.955815 0.104258
v -5.616601 1.949649 0.107689
v -5.623822 1.955815 0.053150
v -5.632615 1.949649 0.054899
v -5.629056 1.955815 0.000000
v -5.638021 1.949649 0.000000
v -5.623822 1.955815 -0.053151
v -5.632615 1.949649 -0.054900
v -5.608318 1.955815 -0.104259
v -5.616601 1.949649 -0.107690
v -5.583141 1.955815 -0.151360
v -5.590596 1.949649 -0.156341
v -5.549261 1.955815 -0.192645
v -5.555600 1.949649 -0.198984
v -5.507976 1.955815 -0.226527
v -5.512956 1.949649 -0.233981
v -5.460874 1.955815 -0.251703
v -5.464304 1.949649 -0.259985
v -5.409766 1.955815 -0.267206
v -5.411515 1.949649 -0.275999
v -5.356616 1.396374 -0.281406
v -5.301715 1.396374 -0.275999
v -5.248927 1.396374 -0.259985
v -5.200274 1.396374 -0.233980
v -5.157631 1.396374 -0.198984
v -5.122635 1.396374 -0.156341
v -5.096631 1.396374 -0.107689
v -5.080616 1.396374 -0.054900
v -5.075210 1.396374 0.000000
v -5.080616 1.396374 0.054900
v -5.096631 1.396374 0.107689
v -5.122635 1.396374 0.156341
v -5.157631 1.396374 0.198984
v -5.200274 1.396374 0.233980
v -5.248927 1.396374 0.259985
v -5.301716 1.396374 0.275999
v -5.356616 1.396374 0.281406
v -5.411516 1.396374 0.275999
v -5.464304 1.396374 0.259985
v -5.512957 1.396374 0.233980
v -5.555600 1.396374 0.198984
v -5.590596 1.396374 0.156341
v -5.616601 1.396374 0.107689
v -5.632615 1.396374 0.054899
v -5.638021 1.396374 0.000000
v -5.632615 1.396374 -0.054900
v -5.616601 1.396374 -0.107690
v -5.590596 1.396374 -0.156341
v -5.555600 1.396374 -0.198984
v -5.512956 1.396374 -0.233981
v -5.464304 1.396374 -0.259985
v -5.411515 1.396374 -0.275999
v -5.301715 1.949649 -0.275999
v -5.356616 1.949649 -0.281406
v -5.356616 1.955815 -0.272441
v -5.303464 1.955815 -0.267206
v -5.248927 1.949649 -0.259985
v -5.252357 1.955815 -0.251703
v -5.200274 1.949649 -0.233980
v -5.205256 1.955815 -0.226526
v -5.157631 1.949649 -0.198984
v -5.163970 1.955815 -0.192645
v -5.122635 1.949649 -0.156341
v -5.130090 1.955815 -0.151360
v -5.096631 1.949649 -0.107689
v -5.104913 1.955815 -0.104259
v -5.080616 1.949649 -0.054900
v -5.089409 1.955815 -0.053151
v -5.075210 1.949649 0.000000
v -5.084175 1.955815 0.000000
v -5.080616 1.949649 0.054900
v -5.089409 1.955815 0.053151
v -5.096631 1.949649 0.107689
v -5.104913 1.955815 0.104259
v -5.122635 1.949649 0.156341
v -5.130090 1.955815 0.151360
v -5.157631 1.949649 0.198984
v -5.163970 1.955815 0.192645
v -5.200274 1.949649 0.233980
v -5.205256 1.955815 0.226526
v -5.248927 1.949649 0.259985
v -5.252357 1.955815 0.251703
v -5.301716 1.949649 0.275999
v -5.303464 1.955815 0.267206
v -5.356616 1.949649 0.281406
v -5.356616 1.955815 0.272441
v -5.411516 1.949649 0.275999
v -5.409767 1.955815 0.267206
v -5.464304 1.949649 0.259985
v -5.460875 1.955815 0.251703
v -5.512957 1.949649 0.233980
v -5.507976 1.955815 0.226526
v -5.555600 1.949649 0.198984
v -5.549261 1.955815 0.192645
v -5.590596 1.949649 0.156341
v -5.583143 1.955815 0.151360
v -5.616601 1.949649 0.107689
v -5.608318 1.955815 0.104258
v -5.632615 1.949649 0.054899
v -5.623822 1.955815 0.053150
v -5.638021 1.949649 0.000000
v -5.629056 1.955815 0.000000
v -5.632615 1.949649 -0.054900
v -5.623822 1.955815 -0.053151
v -5.616601 1.949649 -0.107690
v -5.608318 1.955815 -0.104259
v -5.590596 1.949649 -0.156341
v -5.583141 1.955815 -0.151360
v -5.555600 1.949649 -0.198984
v -5.549261 1.955815 -0.192645
v -5.512956 1.949649 -0.233981
v -5.507976 1.955815 -0.226527
v -5.464304 1.949649 -0.259985
v -5.460874 1.955815 -0.251703
v -5.411515 1.949649 -0.275999
v -5.409766 1.955815 -0.267206
vn -0.1951 -0.0000 -0.9808
vn -0.0000 -0.0000 -1.0000
vn -0.1347 0.9360 0.3252
vn -0.0687 0.9360 0.3452
vn -0.0370 0.9819 0.1860
vn -0.0726 0.9819 0.1752
vn -0.1955 0.9360 0.2926
vn -0.1054 0.9819 0.1577
vn -0.2489 0.9360 0.2489
vn -0.1341 0.9819 0.1341
vn -0.2926 0.9360 0.1955
vn -0.1577 0.9819 0.1054
vn -0.3252 0.9360 0.1347
vn -0.1752 0.9819 0.0726
vn -0.3452 0.9360 0.0687
vn -0.1860 0.9819 0.0370
vn -0.3520 0.9360 -0.0000
vn -0.1896 0.9819 -0.0000
vn -0.3452 0.9360 -0.0687
vn -0.1860 0.9819 -0.0370
vn -0.3252 0.9360 -0.1347
vn -0.1752 0.9819 -0.0726
vn -0.2926 0.9360 -0.1955
vn -0.1577 0.9819 -0.1054
vn -0.2489 0.9360 -0.2489
vn -0.1341 0.9819 -0.1341
vn -0.1955 0.9360 -0.2926
vn -0.1054 0.9819 -0.1577
vn -0.1347 0.9360 -0.3252
vn -0.0726 0.9819 -0.1752
vn -0.0687 0.9360 -0.3452
vn -0.0370 0.9819 -0.1860
vn -0.0000 0.9360 -0.3520
vn -0.0000 0.9819 -0.1896
vn 0.0687 0.9360 -0.3452
vn 0.0370 0.9819 -0.1860
vn 0.1347 0.9360 -0.3252
vn 0.0726 0.9819 -0.1752
vn 0.1955 0.9360 -0.2926
vn 0.1054 0.9819 -0.1577
vn 0.2489 0.9360 -0.2489
vn 0.1341 0.9819 -0.1341
vn 0.2926 0.9360 -0.1955
vn 0.1577 0.9819 -0.1054
vn 0.3252 0.9360 -0.1347
vn 0.1752 0.9819 -0.0726
vn 0.3452 0.9360 -0.0687
vn 0.1860 0.9819 -0.0370
vn 0.3520 0.9360 -0.0000
vn 0.1896 0.9819 -0.0000
vn 0.3452 0.9360 0.0687
vn 0.1860 0.9819 0.0370
vn 0.3252 0.9360 0.1347
vn 0.1752 0.9819 0.0726
vn 0.2926 0.9360 0.1955
vn 0.1577 0.9819 0.1054
vn 0.2489 0.9360 0.2489
vn 0.1341 0.9819 0.1341
vn 0.1955 0.9360 0.2926
vn 0.1054 0.9819 0.1577
vn 0.1347 0.9360 0.3252
vn 0.0726 0.9819 0.1752
vn 1.0000 -0.0000 -0.0000
vn 0.9808 -0.0000 0.1951
vn 0.0687 0.9360 0.3452
vn 0.0370 0.9819 0.1860
vn -0.0000 0.9360 0.3520
vn -0.0000 0.9819 0.1896
vn -0.0000 -1.0000 -0.0000
vn -0.1951 -0.0000 0.9808
vn -0.3827 -0.0000 0.9239
vn -0.9239 -0.0000 -0.3827
vn -0.8315 -0.0000 -0.5556
vn 0.7071 -0.0000 -0.7071
vn 0.8315 -0.0000 -0.5556
vn 0.5556 -0.0000 0.8315
vn 0.3827 -0.0000 0.9239
vn -0.9239 -0.0000 0.3827
vn -0.9808 -0.0000 0.1951
vn 0.9239 -0.0000 0.3827
vn -0.5556 -0.0000 0.8315
vn -0.7071 -0.0000 -0.7071
vn 0.9239 -0.0000 -0.3827
vn 0.1951 -0.0000 0.9808
vn -1.0000 -0.0000 -0.0000
vn 0.1951 -0.0000 -0.9808
vn 0.3827 -0.0000 -0.9239
vn 0.8315 -0.0000 0.5556
vn -0.7071 -0.0000 0.7071
vn -0.5556 -0.0000 -0.8315
vn 0.9808 -0.0000 -0.1951
vn -0.0000 -0.0000 1.0000
vn -0.9808 -0.0000 -0.1951
vn 0.5556 -0.0000 -0.8315
vn 0.7071 -0.0000 0.7071
vn -0.8315 -0.0000 0.5556
vn -0.3827 -0.0000 -0.9239
vn 0.1106 0.8239 -0.5558
vn -0.0000 0.8239 -0.5667
vn 0.2169 0.8239 -0.5236
vn 0.3148 0.8239 -0.4712
vn 0.4007 0.8239 -0.4007
vn 0.4712 0.8239 -0.3148
vn 0.5236 0.8239 -0.2169
vn 0.5558 0.8239 -0.1106
vn 0.5667 0.8239 -0.0000
vn 0.5558 0.8239 0.1106
vn 0.5236 0.8239 0.2169
vn 0.4712 0.8239 0.3148
vn 0.4007 0.8239 0.4007
vn 0.3148 0.8239 0.4712
vn 0.2169 0.8239 0.5236
vn 0.1106 0.8239 0.5558
vn -0.0000 0.8239 0.5667
vn -0.1106 0.8239 0.5558
vn -0.2169 0.8239 0.5236
vn -0.3148 0.8239 0.4712
vn -0.4007 0.8239 0.4007
vn -0.4712 0.8239 0.3149
vn -0.4712 0.8239 0.3148
vn -0.5236 0.8239 0.2169
vn -0.5558 0.8239 0.1106
vn -0.5667 0.8239 -0.0000
vn -0.5558 0.8239 -0.1106
vn -0.5236 0.8239 -0.2169
vn -0.4712 0.8239 -0.3148
vn -0.4007 0.8239 -0.4007
vn -0.3148 0.8239 -0.4712
vn -0.2169 0.8239 -0.5236
vn -0.1106 0.8239 -0.5558
vt 0.000000 0.500000
vt 1.000000 0.500000
vt 0.968750 0.500000
vt 0.937500 0.500000
vt 0.906250 0.500000
vt 0.875000 0.500000
vt 0.843750 0.500000
vt 0.812500 0.500000
vt 0.781250 0.500000
vt 0.750000 0.500000
vt 0.985388 0.203178
vt 0.687500 0.500000
vt 0.656250 0.500000
vt 0.625000 0.500000
vt 0.593750 0.500000
vt 0.562500 0.500000
vt 0.531250 0.500000
vt 0.500000 0.500000
vt 0.468750 0.500000
vt 0.437500 0.500000
vt 0.406250 0.500000
vt 0.375000 0.500000
vt 0.343750 0.500000
vt 0.312500 0.500000
vt 0.281250 0.500000
vt 0.250000 0.500000
vt 0.218750 0.500000
vt 0.187500 0.500000
vt 0.156250 0.500000
vt 0.125000 0.500000
vt 0.093750 0.500000
vt 0.062500 0.500000
vt 0.031250 0.500000
vt 0.296822 0.485388
vt 0.968750 1.000000
vt 0.000000 1.000000
vt 0.250000 0.490000
vt 1.000000 1.000000
vt 0.937500 1.000000
vt 0.341844 0.471731
vt 0.906250 1.000000
vt 0.383337 0.449553
vt 0.875000 1.000000
vt 0.419706 0.419706
vt 0.843750 1.000000
vt 0.449553 0.383337
vt 0.812500 1.000000
vt 0.471731 0.341844
vt 0.781250 1.000000
vt 0.485388 0.296822
vt 0.750000 1.000000
vt 0.490000 0.250000
vt 0.718750 1.000000
vt 0.485388 0.203178
vt 0.687500 1.000000
vt 0.471731 0.158156
vt 0.656250 1.000000
vt 0.449553 0.116663
vt 0.625000 1.000000
vt 0.419706 0.080294
vt 0.593750 1.000000
vt 0.383337 0.050447
vt 0.562500 1.000000
vt 0.341844 0.028269
vt 0.531250 1.000000
vt 0.296822 0.014612
vt 0.500000 1.000000
vt 0.250000 0.010000
vt 0.468750 1.000000
vt 0.203178 0.014612
vt 0.437500 1.000000
vt 0.158156 0.028269
vt 0.406250 1.000000
vt 0.116663 0.050447
vt 0.375000 1.000000
vt 0.080294 0.080294
vt 0.343750 1.000000
vt 0.050447 0.116663
vt 0.312500 1.000000
vt 0.028269 0.158156
vt 0.281250 1.000000
vt 0.014611 0.203179
vt 0.250000 1.000000
vt 0.010000 0.250000
vt 0.218750 1.000000
vt 0.014612 0.296822
vt 0.187500 1.000000
vt 0.028269 0.341844
vt 0.156250 1.000000
vt 0.050447 0.383337
vt 0.125000 1.000000
vt 0.080295 0.419706
vt 0.093750 1.000000
vt 0.116663 0.449553
vt 0.062500 1.000000
vt 0.158156 0.471731
vt 0.031250 1.000000
vt 0.203179 0.485389
vt 1.000000 0.991527
vt 0.000000 0.991527
vt 0.000000 1.000000
vt 1.000000 1.000000
vt 0.968750 1.000000
vt 0.968750 0.991527
vt 0.937500 1.000000
vt 0.937500 0.991527
vt 0.906250 1.000000
vt 0.906250 0.991527
vt 0.875000 1.000000
vt 0.875000 0.991527
vt 0.843750 1.000000
vt 0.843750 0.991527
vt 0.812500 1.000000
vt 0.812500 0.991527
vt 0.781250 1.000000
vt 0.781250 0.991527
vt 0.750000 1.000000
vt 0.750000 0.991527
vt 0.718750 1.000000
vt 0.718750 0.991527
vt 0.687500 1.000000
vt 0.687500 0.991527
vt 0.656250 1.000000
vt 0.656250 0.991527
vt 0.625000 1.000000
vt 0.625000 0.991527
vt 0.593750 1.000000
vt 0.593750 0.991527
vt 0.562500 1.000000
vt 0.562500 0.991527
vt 0.531250 1.000000
vt 0.531250 0.991527
vt 0.500000 1.000000
vt 0.500000 0.991527
vt 0.468750 1.000000
vt 0.468750 0.991527
vt 0.437500 1.000000
vt 0.437500 0.991527
vt 0.406250 1.000000
vt 0.406250 0.991527
vt 0.375000 1.000000
vt 0.375000 0.991527
vt 0.343750 1.000000
vt 0.343750 0.991527
vt 0.312500 1.000000
vt 0.312500 0.991527
vt 0.281250 1.000000
vt 0.281250 0.991527
vt 0.250000 1.000000
vt 0.250000 0.991527
vt 0.218750 1.000000
vt 0.218750 0.991527
vt 0.187500 1.000000
vt 0.187500 0.991527
vt 0.156250 1.000000
vt 0.156250 0.991527
vt 0.125000 1.000000
vt 0.125000 0.991527
vt 0.093750 1.000000
vt 0.093750 0.991527
vt 0.062500 1.000000
vt 0.062500 0.991527
vt 0.031250 1.000000
vt 0.031250 0.991527
vt 0.750000 0.490000
vt 0.796822 0.485388
vt 0.841844 0.471731
vt 0.883337 0.449553
vt 0.919706 0.419706
vt 0.949553 0.383337
vt 0.971731 0.341844
vt 0.985388 0.296822
vt 0.990000 0.250000
vt 0.718750 0.500000
vt 0.971731 0.158156
vt 0.949553 0.116663
vt 0.919706 0.080294
vt 0.883337 0.050447
vt 0.841844 0.028269
vt 0.796822 0.014612
vt 0.750000 0.010000
vt 0.703178 0.014612
vt 0.658156 0.028269
vt 0.616663 0.050447
vt 0.580294 0.080294
vt 0.550447 0.116663
vt 0.528269 0.158156
vt 0.514611 0.203179
vt 0.510000 0.250000
vt 0.514612 0.296822
vt 0.528269 0.341844
vt 0.550447 0.383337
vt 0.580295 0.419706
vt 0.616663 0.449553
vt 0.658156 0.471731
vt 0.703179 0.485389
vt 0.968750 0.991527
vt 0.000000 0.991527
vt 1.000000 0.991527
vt 1.000000 1.000000
vt 0.000000 1.000000
vt 0.968750 1.000000
vt 0.937500 0.991527
vt 0.937500 1.000000
vt 0.906250 0.991527
vt 0.906250 1.000000
vt 0.875000 0.991527
vt 0.875000 1.000000
vt 0.843750 0.991527
vt 0.843750 1.000000
vt 0.812500 0.991527
vt 0.812500 1.000000
vt 0.781250 0.991527
vt 0.781250 1.000000
vt 0.750000 0.991527
vt 0.750000 1.000000
vt 0.718750 0.991527
vt 0.718750 1.000000
vt 0.687500 0.991527
vt 0.687500 1.000000
vt 0.656250 0.991527
vt 0.656250 1.000000
vt 0.625000 0.991527
vt 0.625000 1.000000
vt 0.593750 0.991527
vt 0.593750 1.000000
vt 0.562500 0.991527
vt 0.562500 1.000000
vt 0.531250 0.991527
vt 0.531250 1.000000
vt 0.500000 0.991527
vt 0.500000 1.000000
vt 0.468750 0.991527
vt 0.468750 1.000000
vt 0.437500 0.991527
vt 0.437500 1.000000
vt 0.406250 0.991527
vt 0.406250 1.000000
vt 0.375000 0.991527
vt 0.375000 1.000000
vt 0.343750 0.991527
vt 0.343750 1.000000
vt 0.312500 0.991527
vt 0.312500 1.000000
vt 0.281250 0.991527
vt 0.281250 1.000000
vt 0.250000 0.991527
vt 0.250000 1.000000
vt 0.218750 0.991527
vt 0.218750 1.000000
vt 0.187500 0.991527
vt 0.187500 1.000000
vt 0.156250 0.991527
vt 0.156250 1.000000
vt 0.125000 0.991527
vt 0.125000 1.000000
vt 0.093750 0.991527
vt 0.093750 1.000000
vt 0.062500 0.991527
vt 0.062500 1.000000
vt 0.031250 0.991527
vt 0.031250 1.000000
s 1
usemtl Material.005
f 32/33/1 128/164/1 162/198/2 1/1/2
f 69/105/3 67/103/4 33/35/5 35/39/6
f 71/107/7 69/105/3 35/39/6 36/41/8
f 73/109/9 71/107/7 36/41/8 37/43/10
f 75/111/11 73/109/9 37/43/10 38/45/12
f 77/113/13 75/111/11 38/45/12 39/47/14
f 79/115/15 77/113/13 39/47/14 40/49/16
f 81/117/17 79/115/15 40/49/16 41/51/18
f 83/119/19 81/117/17 41/51/18 42/53/20
f 85/121/21 83/119/19 42/53/20 43/55/22
f 87/123/23 85/121/21 43/55/22 44/57/24
f 89/125/25 87/123/23 44/57/24 45/59/26
f 91/127/27 89/125/25 45/59/26 46/61/28
f 93/129/29 91/127/27 46/61/28 47/63/30
f 95/131/31 93/129/29 47/63/30 48/65/32
f 97/133/33 95/131/31 48/65/32 49/67/34
f 99/135/35 97/133/33 49/67/34 50/69/36
f 101/137/37 99/135/35 50/69/36 51/71/38
f 103/139/39 101/137/37 51/71/38 52/73/40
f 105/141/41 103/139/39 52/73/40 53/75/42
f 107/143/43 105/141/41 53/75/42 54/77/44
f 109/145/45 107/143/43 54/77/44 55/79/46
f 111/147/47 109/145/45 55/79/46 56/81/48
f 113/149/49 111/147/47 56/81/48 57/83/50
f 115/151/51 113/149/49 57/83/50 58/85/52
f 117/153/53 115/151/51 58/85/52 59/87/54
f 119/155/55 117/153/53 59/87/54 60/89/56
f 121/157/57 119/155/55 60/89/56 61/91/58
f 123/159/59 121/157/57 61/91/58 62/93/60
f 125/161/61 123/159/59 62/93/60 63/95/62
f 9/10/63 82/118/63 84/120/64 138/174/64
f 127/163/65 125/161/61 63/95/62 64/97/66
f 66/101/67 127/163/65 64/97/66 34/36/68
f 129/165/69 130/166/69 131/167/69 132/168/69 133/169/69 134/170/69 135/171/69 136/172/69 137/173/69 10/11/69 139/175/69 140/176/69 141/177/69 142/178/69 143/179/69 144/180/69 145/181/69 146/182/69 147/183/69 148/184/69 149/185/69 150/186/69 151/187/69 152/188/69 153/189/69 154/190/69 155/191/69 156/192/69 157/193/69 158/194/69 159/195/69 160/196/69
f 33/34/5 34/37/68 64/98/66 63/96/62 62/94/60 61/92/58 60/90/56 59/88/54 58/86/52 57/84/50 56/82/48 55/80/46 54/78/44 53/76/42 52/74/40 51/72/38 50/70/36 49/68/34 48/66/32 47/64/30 46/62/28 45/60/26 44/58/24 43/56/22 42/54/20 41/52/18 40/50/16 39/48/14 38/46/12 37/44/10 36/42/8 35/40/6
f 18/19/70 100/136/70 102/138/71 19/20/71
f 27/28/72 118/154/72 120/156/73 28/29/73
f 5/6/74 74/110/74 76/112/75 6/7/75
f 14/15/76 92/128/76 94/130/77 15/16/77
f 23/24/78 110/146/78 112/148/79 24/25/79
f 138/174/64 84/120/64 86/122/80 11/12/80
f 19/20/71 102/138/71 104/140/81 20/21/81
f 28/29/73 120/156/73 122/158/82 29/30/82
f 6/7/75 76/112/75 78/114/83 7/8/83
f 15/16/77 94/130/77 96/132/84 16/17/84
f 24/25/79 112/148/79 114/150/85 25/26/85
f 1/2/2 162/199/2 68/104/86 2/3/86
f 2/3/86 68/104/86 70/106/87 3/4/87
f 11/12/80 86/122/80 88/124/88 12/13/88
f 20/21/81 104/140/81 106/142/89 21/22/89
f 29/30/82 122/158/82 124/160/90 30/31/90
f 7/8/83 78/114/83 80/116/91 8/9/91
f 16/17/84 96/132/84 98/134/92 17/18/92
f 25/26/85 114/150/85 116/152/93 26/27/93
f 3/4/87 70/106/87 72/108/94 4/5/94
f 12/13/88 88/124/88 90/126/95 13/14/95
f 21/22/89 106/142/89 108/144/96 22/23/96
f 30/31/90 124/160/90 126/162/97 31/32/97
f 8/9/91 80/116/91 82/118/63 9/10/63
f 17/18/92 98/134/92 100/136/70 18/19/70
f 26/27/93 116/152/93 118/154/72 27/28/72
f 4/5/94 72/108/94 74/110/74 5/6/74
f 13/14/95 90/126/95 92/128/76 14/15/76
f 22/23/96 108/144/96 110/146/78 23/24/78
f 31/32/97 126/162/97 128/164/1 32/33/1
f 161/197/98 65/99/99 163/200/99 164/202/98
f 165/203/100 161/197/98 164/202/98 166/204/100
f 167/205/101 165/203/100 166/204/100 168/206/101
f 169/207/102 167/205/101 168/206/101 170/208/102
f 171/209/103 169/207/102 170/208/102 172/210/103
f 173/211/104 171/209/103 172/210/103 174/212/104
f 175/213/105 173/211/104 174/212/104 176/214/105
f 177/215/106 175/213/105 176/214/105 178/216/106
f 179/217/107 177/215/106 178/216/106 180/218/107
f 181/219/108 179/217/107 180/218/107 182/220/108
f 183/221/109 181/219/108 182/220/108 184/222/109
f 185/223/110 183/221/109 184/222/109 186/224/110
f 187/225/111 185/223/110 186/224/110 188/226/111
f 189/227/112 187/225/111 188/226/111 190/228/112
f 191/229/113 189/227/112 190/228/112 192/230/113
f 193/231/114 191/229/113 192/230/113 194/232/114
f 195/233/115 193/231/114 194/232/114 196/234/115
f 197/235/116 195/233/115 196/234/115 198/236/116
f 199/237/117 197/235/116 198/236/116 200/238/117
f 201/239/118 199/237/117 200/238/117 202/240/118
f 203/241/119 201/239/118 202/240/118 204/242/120
f 205/243/121 203/241/119 204/242/120 206/244/121
f 207/245/122 205/243/121 206/244/121 208/246/122
f 209/247/123 207/245/122 208/246/122 210/248/123
f 211/249/124 209/247/123 210/248/123 212/250/124
f 213/251/125 211/249/124 212/250/124 214/252/125
f 215/253/126 213/251/125 214/252/125 216/254/126
f 217/255/127 215/253/126 216/254/126 218/256/127
f 219/257/128 217/255/127 218/256/127 220/258/128
f 221/259/129 219/257/128 220/258/128 222/260/129
f 223/261/130 221/259/129 222/260/129 224/262/130
f 65/100/99 223/261/130 224/262/130 163/201/99
f 67/103/4 66/102/67 34/38/68 33/35/5
