# Blender v3.4.1 OBJ File: ''
# www.blender.org
mtllib chair1.mtl
o Cube.003_Cube.019
v -0.483683 0.002748 2.291499
v -0.483683 0.626349 2.291499
v -0.483683 0.002748 2.211590
v -0.483683 0.626349 2.211590
v -0.399174 0.002748 2.291499
v -0.399174 0.626349 2.291499
v -0.399174 0.002748 2.211590
v -0.399174 0.626349 2.211590
v -0.483425 0.614123 2.667963
v -0.483425 1.347900 2.687540
v -0.483425 0.615442 2.618522
v -0.483425 1.349219 2.638099
v 0.109760 0.614123 2.667963
v 0.109760 1.347900 2.687540
v 0.109760 0.615442 2.618522
v 0.109760 1.349219 2.638099
v -0.483425 0.659057 2.678691
v -0.483425 0.661387 2.210006
v -0.483425 0.609600 2.678445
v -0.483425 0.611930 2.209760
v 0.109760 0.659057 2.678691
v 0.109760 0.661387 2.210006
v 0.109760 0.609600 2.678445
v 0.109760 0.611930 2.209760
v -0.486660 0.002748 2.678333
v -0.486660 0.626349 2.678333
v -0.486660 0.002748 2.598424
v -0.486660 0.626349 2.598424
v -0.402152 0.002748 2.678333
v -0.402152 0.626349 2.678333
v -0.402152 0.002748 2.598424
v -0.402152 0.626349 2.598424
v 0.023267 0.002748 2.291499
v 0.023267 0.626349 2.291499
v 0.023267 0.002748 2.211591
v 0.023267 0.626349 2.211591
v 0.107776 0.002748 2.291499
v 0.107776 0.626349 2.291499
v 0.107776 0.002748 2.211591
v 0.107776 0.626349 2.211591
v 0.023172 0.002748 2.676904
v 0.023172 0.626349 2.676904
v 0.023172 0.002748 2.596995
v 0.023172 0.626349 2.596995
v 0.107680 0.002748 2.676904
v 0.107680 0.626349 2.676904
v 0.107680 0.002748 2.596995
v 0.107680 0.626349 2.596995
vt 0.375000 0.000000
vt 0.625000 0.000000
vt 0.625000 0.250000
vt 0.375000 0.250000
vt 0.625000 0.500000
vt 0.375000 0.500000
vt 0.625000 0.750000
vt 0.375000 0.750000
vt 0.625000 1.000000
vt 0.375000 1.000000
vt 0.125000 0.500000
vt 0.125000 0.750000
vt 0.875000 0.500000
vt 0.875000 0.750000
vt 0.375000 0.000000
vt 0.625000 0.000000
vt 0.625000 0.250000
vt 0.375000 0.250000
vt 0.625000 0.500000
vt 0.375000 0.500000
vt 0.625000 0.750000
vt 0.375000 0.750000
vt 0.625000 1.000000
vt 0.375000 1.000000
vt 0.125000 0.500000
vt 0.125000 0.750000
vt 0.875000 0.500000
vt 0.875000 0.750000
vt 0.375000 0.000000
vt 0.625000 0.000000
vt 0.625000 0.250000
vt 0.375000 0.250000
vt 0.625000 0.500000
vt 0.375000 0.500000
vt 0.625000 0.750000
vt 0.375000 0.750000
vt 0.625000 1.000000
vt 0.375000 1.000000
vt 0.125000 0.500000
vt 0.125000 0.750000
vt 0.875000 0.500000
vt 0.875000 0.750000
vt 0.375000 0.000000
vt 0.625000 0.000000
vt 0.625000 0.250000
vt 0.375000 0.250000
vt 0.625000 0.500000
vt 0.375000 0.500000
vt 0.625000 0.750000
vt 0.375000 0.750000
vt 0.625000 1.000000
vt 0.375000 1.000000
vt 0.125000 0.500000
vt 0.125000 0.750000
vt 0.875000 0.500000
vt 0.875000 0.750000
vt 0.375000 0.000000
vt 0.625000 0.000000
vt 0.625000 0.250000
vt 0.375000 0.250000
vt 0.625000 0.500000
vt 0.375000 0.500000
vt 0.625000 0.750000
vt 0.375000 0.750000
vt 0.625000 1.000000
vt 0.375000 1.000000
vt 0.125000 0.500000
vt 0.125000 0.750000
vt 0.875000 0.500000
vt 0.875000 0.750000
vt 0.375000 0.000000
vt 0.625000 0.000000
vt 0.625000 0.250000
vt 0.375000 0.250000
vt 0.625000 0.500000
vt 0.375000 0.500000
vt 0.625000 0.750000
vt 0.375000 0.750000
vt 0.625000 1.000000
vt 0.375000 1.000000
vt 0.125000 0.500000
vt 0.125000 0.750000
vt 0.875000 0.500000
vt 0.875000 0.750000
vn -1.0000 0.0000 0.0000
vn 0.0000 0.0000 -1.0000
vn 1.0000 0.0000 0.0000
vn 0.0000 0.0000 1.0000
vn 0.0000 -1.0000 0.0000
vn 0.0000 1.0000 0.0000
vn 0.0000 0.0267 -0.9996
vn 0.0000 -0.0267 0.9996
vn 0.0000 -0.9996 -0.0267
vn 0.0000 0.9996 0.0267
vn 0.0000 -1.0000 -0.0050
vn 0.0000 1.0000 0.0050
vn 0.0000 -0.0050 1.0000
vn 0.0000 0.0050 -1.0000
usemtl None
s off
f 1/1/1 2/2/1 4/3/1 3/4/1
f 3/4/2 4/3/2 8/5/2 7/6/2
f 7/6/3 8/5/3 6/7/3 5/8/3
f 5/8/4 6/7/4 2/9/4 1/10/4
f 3/11/5 7/6/5 5/8/5 1/12/5
f 8/5/6 4/13/6 2/14/6 6/7/6
f 9/15/1 10/16/1 12/17/1 11/18/1
f 11/18/7 12/17/7 16/19/7 15/20/7
f 15/20/3 16/19/3 14/21/3 13/22/3
f 13/22/8 14/21/8 10/23/8 9/24/8
f 11/25/9 15/20/9 13/22/9 9/26/9
f 16/19/10 12/27/10 10/28/10 14/21/10
f 17/29/1 18/30/1 20/31/1 19/32/1
f 19/32/11 20/31/11 24/33/11 23/34/11
f 23/34/3 24/33/3 22/35/3 21/36/3
f 21/36/12 22/35/12 18/37/12 17/38/12
f 19/39/13 23/34/13 21/36/13 17/40/13
f 24/33/14 20/41/14 18/42/14 22/35/14
f 25/43/1 26/44/1 28/45/1 27/46/1
f 27/46/2 28/45/2 32/47/2 31/48/2
f 31/48/3 32/47/3 30/49/3 29/50/3
f 29/50/4 30/49/4 26/51/4 25/52/4
f 27/53/5 31/48/5 29/50/5 25/54/5
f 32/47/6 28/55/6 26/56/6 30/49/6
f 33/57/1 34/58/1 36/59/1 35/60/1
f 35/60/2 36/59/2 40/61/2 39/62/2
f 39/62/3 40/61/3 38/63/3 37/64/3
f 37/64/4 38/63/4 34/65/4 33/66/4
f 35/67/5 39/62/5 37/64/5 33/68/5
f 40/61/6 36/69/6 34/70/6 38/63/6
f 41/71/1 42/72/1 44/73/1 43/74/1
f 43/74/2 44/73/2 48/75/2 47/76/2
f 47/76/3 48/75/3 46/77/3 45/78/3
f 45/78/4 46/77/4 42/79/4 41/80/4
f 43/81/5 47/76/5 45/78/5 41/82/5
f 48/75/6 44/83/6 42/84/6 46/77/6
