# Blender 3.4.1
# www.blender.org
mtllib door_panel.mtl
o Door_Panel001
v 4.801790 -0.000000 -5.977334
v 4.801790 -0.000000 -5.978159
v 4.801791 3.524703 -5.978159
v 4.801791 3.524703 -5.977334
v 4.705254 -0.000000 -5.978241
v 4.705255 3.422760 -5.978241
v 4.699088 -0.000000 -5.978159
v 4.699088 3.416250 -5.978159
v 4.699088 -0.000000 -5.977334
v 4.699088 3.416250 -5.977334
v 4.684421 -0.000000 -5.977334
v 4.684422 3.400761 -5.977334
v 4.684421 -0.000000 -5.967438
v 4.684422 3.400761 -5.967438
v 4.691756 -0.000000 -5.967438
v 4.691757 3.408506 -5.967438
v 4.691756 -0.000000 -5.964963
v 4.691757 3.408506 -5.964963
v 4.699088 -0.000000 -5.964963
v 4.699088 3.416250 -5.964963
v 4.699088 -0.000000 -5.964139
v 4.699088 3.416250 -5.964139
v 4.705254 -0.000000 -5.964056
v 4.705255 3.422760 -5.964056
v 4.801790 -0.000000 -5.964139
v 4.801791 3.524703 -5.964139
v 4.801790 -0.000000 -5.964963
v 4.801791 3.524703 -5.964963
v 3.114566 3.524703 -5.978159
v 3.114566 3.524703 -5.977334
v 3.211102 3.422760 -5.978241
v 3.217268 3.416251 -5.978159
v 3.217268 3.416251 -5.977334
v 3.231935 3.400761 -5.977334
v 3.231935 3.400761 -5.967438
v 3.224600 3.408506 -5.967438
v 3.224600 3.408506 -5.964963
v 3.217268 3.416251 -5.964963
v 3.217268 3.416251 -5.964139
v 3.211102 3.422760 -5.964056
v 3.114566 3.524703 -5.964139
v 3.114566 3.524703 -5.964963
v 3.114565 0.000000 -5.978159
v 3.114565 0.000000 -5.977334
v 3.211102 0.000000 -5.978241
v 3.217268 0.000000 -5.978159
v 3.217268 0.000000 -5.977334
v 3.231935 0.000000 -5.977334
v 3.231935 0.000000 -5.967438
v 3.224599 0.000000 -5.967438
v 3.224599 0.000000 -5.964963
v 3.217268 0.000000 -5.964963
v 3.217268 0.000000 -5.964139
v 3.211102 0.000000 -5.964056
v 3.114565 0.000000 -5.964139
v 3.114565 0.000000 -5.964963
vn 1.0000 -0.0000 -0.0000
vn 0.0540 -0.0000 -0.9985
vn 0.0535 0.0535 -0.9971
vn 0.7071 0.7071 -0.0045
vn -0.0062 -0.0000 -1.0000
vn -0.0013 -0.0013 -1.0000
vn -0.0681 -0.0000 -0.9977
vn -0.0251 -0.0246 -0.9994
vn -0.0532 -0.0000 -0.9986
vn -0.0531 -0.0531 -0.9972
vn -0.0177 -0.0177 -0.9997
vn -0.0532 -0.0000 0.9986
vn -0.0177 -0.0177 0.9997
vn -0.0531 -0.0531 0.9972
vn -0.0681 -0.0000 0.9977
vn -0.0251 -0.0246 0.9994
vn -0.0062 -0.0000 1.0000
vn -0.0013 -0.0013 1.0000
vn 0.0540 -0.0000 0.9985
vn 0.0535 0.0535 0.9971
vn 0.7071 0.7071 -0.0011
vn 0.7071 0.7071 0.0003
vn 0.7071 0.7071 -0.0002
vn -0.0535 0.0535 -0.9971
vn 0.7071 0.7071 0.0010
vn -0.7071 0.7071 -0.0045
vn 0.0013 -0.0013 -1.0000
vn 0.0251 -0.0246 -0.9994
vn 0.0531 -0.0531 -0.9972
vn 0.0177 -0.0177 -0.9997
vn 0.0177 -0.0177 0.9997
vn 0.0531 -0.0531 0.9972
vn 0.0251 -0.0246 0.9994
vn 0.0013 -0.0013 1.0000
vn -0.0535 0.0535 0.9971
vn 0.7071 0.7071 0.0045
vn -0.7071 0.7071 -0.0010
vn -0.7071 0.7071 0.0002
vn -0.7071 0.7071 -0.0003
vn -0.0540 -0.0000 -0.9985
vn -0.7071 0.7071 0.0011
vn -1.0000 -0.0000 -0.0000
vn 0.0062 -0.0000 -1.0000
vn 0.0681 -0.0000 -0.9977
vn 0.0532 -0.0000 -0.9986
vn 0.0532 -0.0000 0.9986
vn 0.0681 -0.0000 0.9977
vn 0.0062 -0.0000 1.0000
vn -0.0540 -0.0000 0.9985
vn -0.7071 0.7071 0.0045
vt 0.548400 0.114200
vt 0.554800 0.114200
vt 0.129000 0.114200
vt 0.554800 1.581900
vt 0.129000 1.581900
vt 0.556700 0.116700
vt 0.172000 0.116700
vt 0.548400 1.581900
vt 0.550000 0.116700
vt 0.171500 0.114200
vt 0.171500 1.539500
vt 0.215900 0.160500
vt 0.174200 0.114200
vt 0.445200 0.114200
vt 0.174200 1.536800
vt 0.445200 1.536800
vt 0.218700 0.163300
vt 0.443300 0.163300
vt 0.451600 0.114200
vt 0.174200 0.114200
vt 0.451600 1.536800
vt 0.174200 1.536800
vt 0.450000 0.163300
vt 0.218700 0.163300
vt 0.180600 0.114200
vt 0.451600 0.114200
vt 0.180600 1.530300
vt 0.451600 1.530300
vt 0.225300 0.170000
vt 0.450000 0.170000
vt 0.529000 0.114200
vt 0.819400 0.114200
vt 0.529000 1.530300
vt 0.819400 1.530300
vt 0.530000 0.170000
vt 0.774700 0.170000
vt 0.822600 0.114200
vt 0.529000 0.114200
vt 0.822600 1.533600
vt 0.529000 1.533600
vt 0.778000 0.166700
vt 0.530000 0.166700
vt 0.548400 0.114200
vt 0.822600 0.114200
vt 0.548400 1.533600
vt 0.822600 1.533600
vt 0.550000 0.166700
vt 0.778000 0.166700
vt 0.825800 0.114200
vt 0.548400 0.114200
vt 0.825800 1.536800
vt 0.548400 1.536800
vt 0.781300 0.163300
vt 0.550000 0.163300
vt 0.554800 0.114200
vt 0.825800 0.114200
vt 0.554800 1.536800
vt 0.825800 1.536800
vt 0.556700 0.163300
vt 0.781300 0.163300
vt 0.828500 0.114200
vt 0.828500 1.539500
vt 0.784100 0.160500
vt 0.871000 0.114200
vt 0.445200 0.114200
vt 0.871000 1.581900
vt 0.445200 1.581900
vt 0.828000 0.116700
vt 0.443300 0.116700
vt 0.451600 0.114200
vt 0.451600 1.581900
vt 0.450000 0.116700
vt 0.556700 0.883300
vt 0.172000 0.883300
vt 0.445200 1.581900
vt 0.871000 1.581900
vt 0.550000 0.883300
vt 0.451600 1.581900
vt 0.215900 0.839500
vt 0.828500 1.539500
vt 0.218700 0.836700
vt 0.443300 0.836700
vt 0.825800 1.536800
vt 0.554800 1.536800
vt 0.450000 0.836700
vt 0.218700 0.836700
vt 0.548400 1.536800
vt 0.825800 1.536800
vt 0.225300 0.830000
vt 0.450000 0.830000
vt 0.819400 1.530300
vt 0.548400 1.530300
vt 0.530000 0.830000
vt 0.774700 0.830000
vt 0.471000 1.530300
vt 0.180600 1.530300
vt 0.778000 0.833300
vt 0.530000 0.833300
vt 0.177400 1.533600
vt 0.471000 1.533600
vt 0.550000 0.833300
vt 0.778000 0.833300
vt 0.451600 1.533600
vt 0.177400 1.533600
vt 0.781300 0.836700
vt 0.550000 0.836700
vt 0.174200 1.536800
vt 0.451600 1.536800
vt 0.556700 0.836700
vt 0.781300 0.836700
vt 0.445200 1.536800
vt 0.174200 1.536800
vt 0.784100 0.839500
vt 0.171500 1.539500
vt 0.828000 0.883300
vt 0.443300 0.883300
vt 0.129000 1.581900
vt 0.554800 1.581900
vt 0.450000 0.883300
vt 0.548400 1.581900
vt 0.445200 0.114200
vt 0.871000 0.114200
vt 0.451600 0.114200
vt 0.828500 0.114200
vt 0.825800 0.114200
vt 0.554800 0.114200
vt 0.548400 0.114200
vt 0.825800 0.114200
vt 0.819400 0.114200
vt 0.548400 0.114200
vt 0.471000 0.114200
vt 0.180600 0.114200
vt 0.177400 0.114200
vt 0.471000 0.114200
vt 0.451600 0.114200
vt 0.177400 0.114200
vt 0.174200 0.114200
vt 0.451600 0.114200
vt 0.445200 0.114200
vt 0.174200 0.114200
vt 0.171500 0.114200
vt 0.129000 0.114200
vt 0.554800 0.114200
vt 0.548400 0.114200
s 0
usemtl wire_224086086
f 1/1/1 2/2/2 3/4/3
f 1/1/1 3/4/3 4/8/4
f 2/3/2 5/10/5 6/11/6 3/5/3
f 5/10/5 7/13/7 8/15/8
f 5/10/5 8/15/8 6/11/6
f 7/14/7 9/19/9 10/21/10
f 7/14/7 10/21/10 8/16/8
f 9/20/9 11/25/9 12/27/11
f 9/20/9 12/27/11 10/22/10
f 11/26/9 13/31/12 14/33/13 12/28/11
f 13/32/12 15/37/12 16/39/14
f 13/32/12 16/39/14 14/34/13
f 15/38/12 17/43/12 18/45/13
f 15/38/12 18/45/13 16/40/14
f 17/44/12 19/49/12 20/51/14
f 17/44/12 20/51/14 18/46/13
f 19/50/12 21/55/15 22/57/16
f 19/50/12 22/57/16 20/52/14
f 21/56/15 23/61/17 24/62/18
f 21/56/15 24/62/18 22/58/16
f 23/61/17 25/64/19 26/66/20 24/62/18
f 25/65/19 27/70/1 28/71/21
f 25/65/19 28/71/22 26/67/20
f 4/9/23 3/6/3 29/73/24
f 4/9/25 29/73/24 30/77/26
f 3/7/3 6/12/6 31/79/27 29/74/24
f 6/12/6 8/17/8 32/81/28
f 6/12/6 32/81/28 31/79/27
f 8/18/8 10/23/10 33/85/29
f 8/18/8 33/85/29 32/82/28
f 10/24/10 12/29/11 34/89/30
f 10/24/10 34/89/30 33/86/29
f 12/30/11 14/35/13 35/93/31
f 12/30/11 35/93/31 34/90/30
f 14/36/13 16/41/14 36/97/32
f 14/36/13 36/97/32 35/94/31
f 16/42/14 18/47/13 37/101/31
f 16/42/14 37/101/31 36/98/32
f 18/48/13 20/53/14 38/105/32
f 18/48/13 38/105/32 37/102/31
f 20/54/14 22/59/16 39/109/33
f 20/54/14 39/109/33 38/106/32
f 22/60/16 24/63/18 40/113/34
f 22/60/16 40/113/34 39/110/33
f 24/63/18 26/68/20 41/115/35 40/113/34
f 26/69/20 28/72/36 42/119/37
f 26/69/20 42/119/38 41/116/35
f 30/78/39 29/75/24 43/121/40
f 30/78/41 43/121/40 44/123/42
f 29/76/24 31/80/27 45/124/43 43/122/40
f 31/80/27 32/83/28 46/125/44
f 31/80/27 46/125/44 45/124/43
f 32/84/28 33/87/29 47/127/45
f 32/84/28 47/127/45 46/126/44
f 33/88/29 34/91/30 48/129/45
f 33/88/29 48/129/45 47/128/45
f 34/92/30 35/95/31 49/131/46 48/130/45
f 35/96/31 36/99/32 50/133/46
f 35/96/31 50/133/46 49/132/46
f 36/100/32 37/103/31 51/135/46
f 36/100/32 51/135/46 50/134/46
f 37/104/31 38/107/32 52/137/46
f 37/104/31 52/137/46 51/136/46
f 38/108/32 39/111/33 53/139/47
f 38/108/32 53/139/47 52/138/46
f 39/112/33 40/114/34 54/141/48
f 39/112/33 54/141/48 53/140/47
f 40/114/34 41/117/35 55/142/49 54/141/48
f 41/118/35 42/120/50 56/144/42
f 41/118/35 56/144/42 55/143/49
