# Blender v3.4.1 OBJ File: ''
# www.blender.org
mtllib materace1.mtl
o materace_Cube.005
v 2.529292 0.192162 1.323208
v 2.529292 0.199079 1.297354
v 2.553892 0.205592 1.298608
v 2.555146 0.199079 1.323208
v 2.529292 0.218084 1.278349
v 2.553892 0.219338 1.284862
v 1.987940 0.243938 1.271432
v 2.529292 0.243938 1.271432
v 1.987940 0.218054 1.278367
v 1.987940 0.397661 1.278367
v 2.529292 0.397631 1.278349
v 2.529292 0.371777 1.271432
v 1.987940 0.371777 1.271432
v 1.987940 0.416618 1.297324
v 2.529292 0.416636 1.297354
v 2.555146 0.371777 1.278349
v 2.555146 0.243938 1.278349
v 2.553892 0.396377 1.284862
v 2.553892 0.410123 1.298608
v 1.987940 0.423553 1.323208
v 2.529292 0.423553 1.323208
v 2.555146 0.416636 1.323208
v 1.987940 0.199096 1.297324
v 1.987940 0.192162 1.323208
v 2.581068 0.243938 2.183990
v 2.581068 0.243938 1.323208
v 2.581068 0.371777 1.323208
v 2.581068 0.371777 2.183990
v 2.574151 0.218084 1.323208
v 2.567638 0.219338 1.298608
v 2.574151 0.243938 1.297354
v 2.574151 0.371777 1.297354
v 2.567638 0.396377 1.298608
v 2.574151 0.397631 1.323208
v 1.446588 0.192162 1.323208
v 1.420734 0.199079 1.323208
v 1.421988 0.205592 1.298608
v 1.446588 0.199079 1.297354
v 1.421988 0.219338 1.284862
v 1.446588 0.218084 1.278349
v 1.446588 0.243938 1.271432
v 1.446588 0.371777 1.271432
v 1.446588 0.397631 1.278349
v 1.446588 0.416636 1.297354
v 1.420734 0.371777 1.278349
v 1.420734 0.243938 1.278349
v 1.421988 0.396377 1.284862
v 1.421988 0.410123 1.298608
v 1.446588 0.423553 1.323208
v 1.420734 0.416636 1.323208
v 1.394812 0.243938 2.183990
v 1.394812 0.371777 2.183990
v 1.394812 0.371777 1.323208
v 1.394812 0.243938 1.323208
v 1.401729 0.243938 1.297354
v 1.408242 0.219338 1.298608
v 1.401729 0.218084 1.323208
v 1.401729 0.371777 1.297354
v 1.401729 0.397631 1.323208
v 1.408242 0.396377 1.298608
v 1.401744 0.397657 2.183990
v 1.420708 0.416621 2.183990
v 1.401744 0.218058 2.183990
v 1.420708 0.199094 2.183990
v 1.446588 0.423553 2.183990
v 1.446588 0.192162 2.183990
v 1.987940 0.192162 2.183990
v 1.987940 0.423553 2.183990
v 2.574136 0.397657 2.183990
v 2.555172 0.416621 2.183990
v 2.574136 0.218058 2.183990
v 2.555172 0.199094 2.183990
v 2.529292 0.423553 2.183990
v 2.529292 0.192162 2.183990
v 2.529292 0.192162 3.044771
v 2.555146 0.199079 3.044772
v 2.553892 0.205592 3.069371
v 2.529292 0.199079 3.070625
v 2.553892 0.219338 3.083117
v 2.529292 0.218084 3.089630
v 1.987940 0.243938 3.096547
v 1.987940 0.218054 3.089613
v 2.529292 0.243938 3.096547
v 1.987940 0.397661 3.089613
v 1.987940 0.371777 3.096547
v 2.529292 0.371777 3.096547
v 2.529292 0.397631 3.089630
v 1.987940 0.416618 3.070655
v 2.529292 0.416636 3.070625
v 2.555146 0.371777 3.089630
v 2.555146 0.243938 3.089630
v 2.553892 0.396377 3.083117
v 2.553892 0.410123 3.069371
v 1.987940 0.423553 3.044771
v 2.529292 0.423553 3.044771
v 2.555146 0.416636 3.044772
v 1.987940 0.199096 3.070655
v 1.987940 0.192162 3.044771
v 2.581068 0.371777 3.044771
v 2.581068 0.243938 3.044771
v 2.574151 0.243938 3.070625
v 2.567638 0.219338 3.069371
v 2.574151 0.218084 3.044772
v 2.574151 0.371777 3.070625
v 2.574151 0.397631 3.044772
v 2.567638 0.396377 3.069371
v 1.446588 0.192162 3.044771
v 1.446588 0.199079 3.070625
v 1.421988 0.205592 3.069371
v 1.420734 0.199079 3.044772
v 1.446588 0.218084 3.089630
v 1.421988 0.219338 3.083117
v 1.446588 0.243938 3.096547
v 1.446588 0.397631 3.089630
v 1.446588 0.371777 3.096547
v 1.446588 0.416636 3.070625
v 1.420734 0.371777 3.089630
v 1.420734 0.243938 3.089630
v 1.421988 0.396377 3.083117
v 1.421988 0.410123 3.069371
v 1.446588 0.423553 3.044771
v 1.420734 0.416636 3.044772
v 1.394812 0.243938 3.044771
v 1.394812 0.371777 3.044771
v 1.401729 0.218084 3.044772
v 1.408242 0.219338 3.069371
v 1.401729 0.243938 3.070625
v 1.401729 0.371777 3.070625
v 1.408242 0.396377 3.069371
v 1.401729 0.397631 3.044772
vt 0.676957 0.525890
vt 0.676957 0.521082
vt 0.668986 0.521315
vt 0.668580 0.525890
vt 0.676957 0.516261
vt 0.668986 0.516261
vt 0.852367 0.516261
vt 0.676957 0.516261
vt 0.852367 0.516642
vt 0.852367 0.516642
vt 0.676957 0.516261
vt 0.676957 0.516261
vt 0.852367 0.516261
vt 0.852367 0.521076
vt 0.676957 0.521082
vt 0.668580 0.516261
vt 0.668580 0.516261
vt 0.668986 0.516261
vt 0.668986 0.521315
vt 0.852367 0.525890
vt 0.676957 0.525890
vt 0.668580 0.525890
vt 0.852367 0.521076
vt 0.852367 0.525890
vt 0.660181 0.685966
vt 0.660181 0.525890
vt 0.660181 0.525890
vt 0.660181 0.685966
vt 0.660181 0.525890
vt 0.660181 0.521315
vt 0.660181 0.521082
vt 0.660181 0.521082
vt 0.660181 0.521315
vt 0.660181 0.525890
vt 0.676957 0.525890
vt 0.668580 0.525890
vt 0.668986 0.521315
vt 0.676957 0.521082
vt 0.668986 0.516261
vt 0.676957 0.516261
vt 0.676957 0.516261
vt 0.676957 0.516261
vt 0.676957 0.516261
vt 0.676957 0.521082
vt 0.668580 0.516261
vt 0.668580 0.516261
vt 0.668986 0.516261
vt 0.668986 0.521315
vt 0.676957 0.525890
vt 0.668580 0.525890
vt 0.660181 0.685966
vt 0.660181 0.685966
vt 0.660181 0.525890
vt 0.660181 0.525890
vt 0.660181 0.521082
vt 0.660181 0.521315
vt 0.660181 0.525890
vt 0.660181 0.521082
vt 0.660181 0.525890
vt 0.660181 0.521315
vt 0.660752 0.685966
vt 0.668572 0.685966
vt 0.660752 0.685966
vt 0.668572 0.685966
vt 0.676957 0.685966
vt 0.676957 0.685966
vt 0.852367 0.685966
vt 0.852367 0.685966
vt 0.660752 0.685966
vt 0.668572 0.685966
vt 0.660752 0.685966
vt 0.668572 0.685966
vt 0.676957 0.685966
vt 0.676957 0.685966
vt 0.676957 0.525890
vt 0.668580 0.525890
vt 0.668986 0.521315
vt 0.676957 0.521082
vt 0.668986 0.516261
vt 0.676957 0.516261
vt 0.852367 0.516261
vt 0.852367 0.516642
vt 0.676957 0.516261
vt 0.852367 0.516642
vt 0.852367 0.516261
vt 0.676957 0.516261
vt 0.676957 0.516261
vt 0.852367 0.521076
vt 0.676957 0.521082
vt 0.668580 0.516261
vt 0.668580 0.516261
vt 0.668986 0.516261
vt 0.668986 0.521315
vt 0.852367 0.525890
vt 0.676957 0.525890
vt 0.668580 0.525890
vt 0.852367 0.521076
vt 0.852367 0.525890
vt 0.660181 0.525890
vt 0.660181 0.525890
vt 0.660181 0.521082
vt 0.660181 0.521315
vt 0.660181 0.525890
vt 0.660181 0.521082
vt 0.660181 0.525890
vt 0.660181 0.521315
vt 0.676957 0.525890
vt 0.676957 0.521082
vt 0.668986 0.521315
vt 0.668580 0.525890
vt 0.676957 0.516261
vt 0.668986 0.516261
vt 0.676957 0.516261
vt 0.676957 0.516261
vt 0.676957 0.516261
vt 0.676957 0.521082
vt 0.668580 0.516261
vt 0.668580 0.516261
vt 0.668986 0.516261
vt 0.668986 0.521315
vt 0.676957 0.525890
vt 0.668580 0.525890
vt 0.660181 0.525890
vt 0.660181 0.525890
vt 0.660181 0.525890
vt 0.660181 0.521315
vt 0.660181 0.521082
vt 0.660181 0.521082
vt 0.660181 0.521315
vt 0.660181 0.525890
vn 0.1291 -0.9832 -0.1291
vn 0.1211 -0.8623 -0.4917
vn 0.4464 -0.7756 -0.4464
vn 0.4917 -0.8623 -0.1211
vn 0.1211 -0.4917 -0.8623
vn 0.4464 -0.4464 -0.7756
vn 0.0000 -0.1304 -0.9915
vn 0.1291 -0.1291 -0.9832
vn 0.0000 -0.4999 -0.8661
vn 0.0000 0.4999 -0.8661
vn 0.1211 0.4917 -0.8623
vn 0.1291 0.1291 -0.9832
vn 0.0000 0.1304 -0.9915
vn 0.0000 0.8661 -0.4999
vn 0.1211 0.8623 -0.4917
vn 0.4917 0.1211 -0.8623
vn 0.4917 -0.1211 -0.8623
vn 0.4464 0.4464 -0.7756
vn 0.4464 0.7756 -0.4464
vn -0.0000 0.9915 -0.1304
vn 0.1291 0.9832 -0.1291
vn 0.4917 0.8623 -0.1211
vn 0.0000 -0.8661 -0.4999
vn -0.0000 -0.9915 -0.1304
vn 0.9915 -0.1304 -0.0000
vn 0.9832 -0.1291 -0.1291
vn 0.9832 0.1291 -0.1291
vn 0.9915 0.1304 0.0000
vn 0.8623 -0.4917 -0.1211
vn 0.7756 -0.4464 -0.4464
vn 0.8623 -0.1211 -0.4917
vn 0.8623 0.1211 -0.4917
vn 0.7756 0.4464 -0.4464
vn 0.8623 0.4917 -0.1211
vn -0.1291 -0.9832 -0.1291
vn -0.4917 -0.8623 -0.1211
vn -0.4464 -0.7756 -0.4464
vn -0.1211 -0.8623 -0.4917
vn -0.4464 -0.4464 -0.7756
vn -0.1211 -0.4917 -0.8623
vn -0.1291 -0.1291 -0.9832
vn -0.1291 0.1291 -0.9832
vn -0.1211 0.4917 -0.8623
vn -0.1211 0.8623 -0.4917
vn -0.4917 0.1211 -0.8623
vn -0.4917 -0.1211 -0.8623
vn -0.4464 0.4464 -0.7756
vn -0.4464 0.7756 -0.4464
vn -0.1291 0.9832 -0.1291
vn -0.4917 0.8623 -0.1211
vn -0.9915 -0.1304 -0.0000
vn -0.9915 0.1304 0.0000
vn -0.9832 0.1291 -0.1291
vn -0.9832 -0.1291 -0.1291
vn -0.8623 -0.1211 -0.4917
vn -0.7756 -0.4464 -0.4464
vn -0.8623 -0.4917 -0.1211
vn -0.8623 0.1211 -0.4917
vn -0.8623 0.4917 -0.1211
vn -0.7756 0.4464 -0.4464
vn -0.8661 0.4999 0.0000
vn -0.4999 0.8661 0.0000
vn -0.8661 -0.4999 -0.0000
vn -0.4999 -0.8661 -0.0000
vn -0.1304 0.9915 0.0000
vn -0.1304 -0.9915 -0.0000
vn 0.0000 -1.0000 -0.0000
vn 0.0000 1.0000 0.0000
vn 0.8661 0.4999 0.0000
vn 0.4999 0.8661 0.0000
vn 0.8661 -0.4999 -0.0000
vn 0.4999 -0.8661 -0.0000
vn 0.1304 0.9915 0.0000
vn 0.1304 -0.9915 -0.0000
vn 0.1291 -0.9832 0.1291
vn 0.4917 -0.8623 0.1211
vn 0.4464 -0.7756 0.4464
vn 0.1211 -0.8623 0.4917
vn 0.4464 -0.4464 0.7756
vn 0.1211 -0.4917 0.8623
vn -0.0000 -0.1304 0.9915
vn -0.0000 -0.4999 0.8661
vn 0.1291 -0.1291 0.9832
vn 0.0000 0.4999 0.8661
vn 0.0000 0.1304 0.9915
vn 0.1291 0.1291 0.9832
vn 0.1211 0.4917 0.8623
vn -0.0000 0.8661 0.4999
vn 0.1211 0.8623 0.4917
vn 0.4917 0.1211 0.8623
vn 0.4917 -0.1211 0.8623
vn 0.4464 0.4464 0.7756
vn 0.4464 0.7756 0.4464
vn -0.0000 0.9915 0.1304
vn 0.1291 0.9832 0.1291
vn 0.4917 0.8623 0.1211
vn -0.0000 -0.8661 0.4999
vn -0.0000 -0.9915 0.1304
vn 0.9832 0.1291 0.1291
vn 0.9832 -0.1291 0.1291
vn 0.8623 -0.1211 0.4917
vn 0.7756 -0.4464 0.4464
vn 0.8623 -0.4917 0.1211
vn 0.8623 0.1211 0.4917
vn 0.8623 0.4917 0.1211
vn 0.7756 0.4464 0.4464
vn -0.1291 -0.9832 0.1291
vn -0.1211 -0.8623 0.4917
vn -0.4464 -0.7756 0.4464
vn -0.4917 -0.8623 0.1211
vn -0.1211 -0.4917 0.8623
vn -0.4464 -0.4464 0.7756
vn -0.1291 -0.1291 0.9832
vn -0.1211 0.4917 0.8623
vn -0.1291 0.1291 0.9832
vn -0.1211 0.8623 0.4917
vn -0.4917 0.1211 0.8623
vn -0.4917 -0.1211 0.8623
vn -0.4464 0.4464 0.7756
vn -0.4464 0.7756 0.4464
vn -0.1291 0.9832 0.1291
vn -0.4917 0.8623 0.1211
vn -0.9832 -0.1291 0.1291
vn -0.9832 0.1291 0.1291
vn -0.8623 -0.4917 0.1211
vn -0.7756 -0.4464 0.4464
vn -0.8623 -0.1211 0.4917
vn -0.8623 0.1211 0.4917
vn -0.7756 0.4464 0.4464
vn -0.8623 0.4917 0.1211
usemtl None.004
s 1
f 1/1/1 2/2/2 3/3/3 4/4/4
f 2/2/2 5/5/5 6/6/6 3/3/3
f 7/7/7 8/8/8 5/5/5 9/9/9
f 10/10/10 11/11/11 12/12/12 13/13/13
f 14/14/14 15/15/15 11/11/11 10/10/10
f 16/16/16 17/17/17 8/8/8 12/12/12
f 12/12/12 11/11/11 18/18/18 16/16/16
f 11/11/11 15/15/15 19/19/19 18/18/18
f 20/20/20 21/21/21 15/15/15 14/14/14
f 21/21/21 22/22/22 19/19/19 15/15/15
f 23/23/23 2/2/2 1/1/1 24/24/24
f 25/25/25 26/26/26 27/27/27 28/28/28
f 9/9/9 5/5/5 2/2/2 23/23/23
f 26/26/26 29/29/29 30/30/30 31/31/31
f 29/29/29 4/4/4 3/3/3 30/30/30
f 17/17/17 31/31/31 30/30/30 6/6/6
f 6/6/6 30/30/30 3/3/3
f 8/8/8 17/17/17 6/6/6 5/5/5
f 32/32/32 31/31/31 17/17/17 16/16/16
f 27/27/27 26/26/26 31/31/31 32/32/32
f 27/27/27 32/32/32 33/33/33 34/34/34
f 32/32/32 16/16/16 18/18/18 33/33/33
f 22/22/22 34/34/34 33/33/33 19/19/19
f 18/18/18 19/19/19 33/33/33
f 8/8/8 7/7/7 13/13/13 12/12/12
f 35/35/35 36/36/36 37/37/37 38/38/38
f 38/38/38 37/37/37 39/39/39 40/40/40
f 7/7/7 9/9/9 40/40/40 41/41/41
f 10/10/10 13/13/13 42/42/42 43/43/43
f 14/14/14 10/10/10 43/43/43 44/44/44
f 45/45/45 42/42/42 41/41/41 46/46/46
f 42/42/42 45/45/45 47/47/47 43/43/43
f 43/43/43 47/47/47 48/48/48 44/44/44
f 20/20/20 14/14/14 44/44/44 49/49/49
f 49/49/49 44/44/44 48/48/48 50/50/50
f 23/23/23 24/24/24 35/35/35 38/38/38
f 51/51/51 52/52/52 53/53/53 54/54/54
f 9/9/9 23/23/23 38/38/38 40/40/40
f 54/54/54 55/55/55 56/56/56 57/57/57
f 57/57/57 56/56/56 37/37/37 36/36/36
f 46/46/46 39/39/39 56/56/56 55/55/55
f 39/39/39 37/37/37 56/56/56
f 41/41/41 40/40/40 39/39/39 46/46/46
f 58/58/58 45/45/45 46/46/46 55/55/55
f 53/53/53 58/58/58 55/55/55 54/54/54
f 53/53/53 59/59/59 60/60/60 58/58/58
f 58/58/58 60/60/60 47/47/47 45/45/45
f 50/50/50 48/48/48 60/60/60 59/59/59
f 47/47/47 60/60/60 48/48/48
f 41/41/41 42/42/42 13/13/13 7/7/7
f 59/59/59 53/53/53 52/52/52 61/61/61
f 50/50/50 59/59/59 61/61/61 62/62/62
f 54/54/54 57/57/57 63/63/63 51/51/51
f 57/57/57 36/36/36 64/64/64 63/63/63
f 49/49/49 50/50/50 62/62/62 65/65/65
f 36/36/36 35/35/35 66/66/66 64/64/64
f 35/35/35 24/24/24 67/67/67 66/66/66
f 49/49/49 65/65/65 68/68/68 20/20/20
f 34/34/34 69/69/69 28/28/28 27/27/27
f 22/22/22 70/70/70 69/69/69 34/34/34
f 26/26/26 25/25/25 71/71/71 29/29/29
f 29/29/29 71/71/71 72/72/72 4/4/4
f 21/21/21 73/73/73 70/70/70 22/22/22
f 21/21/21 20/20/20 68/68/68 73/73/73
f 4/4/4 72/72/72 74/74/74 1/1/1
f 1/1/1 74/74/74 67/67/67 24/24/24
f 75/75/75 76/76/76 77/77/77 78/78/78
f 78/78/78 77/77/77 79/79/79 80/80/80
f 81/81/81 82/82/82 80/80/80 83/83/83
f 84/84/84 85/85/85 86/86/86 87/87/87
f 88/88/88 84/84/84 87/87/87 89/89/89
f 90/90/90 86/86/86 83/83/83 91/91/91
f 86/86/86 90/90/90 92/92/92 87/87/87
f 87/87/87 92/92/92 93/93/93 89/89/89
f 94/94/94 88/88/88 89/89/89 95/95/95
f 95/95/95 89/89/89 93/93/93 96/96/96
f 97/97/97 98/98/98 75/75/75 78/78/78
f 25/25/25 28/28/28 99/99/99 100/100/100
f 82/82/82 97/97/97 78/78/78 80/80/80
f 100/100/100 101/101/101 102/102/102 103/103/103
f 103/103/103 102/102/102 77/77/77 76/76/76
f 91/91/91 79/79/79 102/102/102 101/101/101
f 79/79/79 77/77/77 102/102/102
f 83/83/83 80/80/80 79/79/79 91/91/91
f 104/104/104 90/90/90 91/91/91 101/101/101
f 99/99/99 104/104/104 101/101/101 100/100/100
f 99/99/99 105/105/105 106/106/106 104/104/104
f 104/104/104 106/106/106 92/92/92 90/90/90
f 96/96/96 93/93/93 106/106/106 105/105/105
f 92/92/92 106/106/106 93/93/93
f 83/83/83 86/86/86 85/85/85 81/81/81
f 107/107/107 108/108/108 109/109/109 110/110/110
f 108/108/108 111/111/111 112/112/112 109/109/109
f 81/81/81 113/113/113 111/111/111 82/82/82
f 84/84/84 114/114/114 115/115/115 85/85/85
f 88/88/88 116/116/116 114/114/114 84/84/84
f 117/117/117 118/118/118 113/113/113 115/115/115
f 115/115/115 114/114/114 119/119/119 117/117/117
f 114/114/114 116/116/116 120/120/120 119/119/119
f 94/94/94 121/121/121 116/116/116 88/88/88
f 121/121/121 122/122/122 120/120/120 116/116/116
f 97/97/97 108/108/108 107/107/107 98/98/98
f 51/51/51 123/123/123 124/124/124 52/52/52
f 82/82/82 111/111/111 108/108/108 97/97/97
f 123/123/123 125/125/125 126/126/126 127/127/127
f 125/125/125 110/110/110 109/109/109 126/126/126
f 118/118/118 127/127/127 126/126/126 112/112/112
f 112/112/112 126/126/126 109/109/109
f 113/113/113 118/118/118 112/112/112 111/111/111
f 128/128/128 127/127/127 118/118/118 117/117/117
f 124/124/124 123/123/123 127/127/127 128/128/128
f 124/124/124 128/128/128 129/129/129 130/130/130
f 128/128/128 117/117/117 119/119/119 129/129/129
f 122/122/122 130/130/130 129/129/129 120/120/120
f 119/119/119 120/120/120 129/129/129
f 113/113/113 81/81/81 85/85/85 115/115/115
f 130/130/130 61/61/61 52/52/52 124/124/124
f 122/122/122 62/62/62 61/61/61 130/130/130
f 123/123/123 51/51/51 63/63/63 125/125/125
f 125/125/125 63/63/63 64/64/64 110/110/110
f 121/121/121 65/65/65 62/62/62 122/122/122
f 110/110/110 64/64/64 66/66/66 107/107/107
f 107/107/107 66/66/66 67/67/67 98/98/98
f 121/121/121 94/94/94 68/68/68 65/65/65
f 105/105/105 99/99/99 28/28/28 69/69/69
f 96/96/96 105/105/105 69/69/69 70/70/70
f 100/100/100 103/103/103 71/71/71 25/25/25
f 103/103/103 76/76/76 72/72/72 71/71/71
f 95/95/95 96/96/96 70/70/70 73/73/73
f 95/95/95 73/73/73 68/68/68 94/94/94
f 76/76/76 75/75/75 74/74/74 72/72/72
f 75/75/75 98/98/98 67/67/67 74/74/74
