# Blender v3.4.1 OBJ File: ''
# www.blender.org
mtllib room1.mtl
o Plane.002_Plane.006
v -0.683544 1.965424 3.577480
v 0.688873 1.965424 3.577480
v -0.683544 1.965424 3.292451
v 0.688873 1.965424 3.292451
v 2.576608 1.969094 1.074835
v 2.860736 1.969094 1.074835
v 2.576608 1.969094 -0.351723
v 2.860736 1.969094 -0.351723
v -2.862471 1.970001 -3.291840
v -2.862471 2.500000 -3.291840
v -2.862471 2.500000 -3.578088
v -2.862471 1.970001 -3.578088
v 2.576224 1.970001 -3.578088
v 2.576224 2.500000 -3.578088
v 2.862471 2.500000 -3.578088
v 2.862471 1.970001 -3.578088
v 2.862471 1.970000 3.291842
v 2.862471 2.500000 3.291842
v 2.862471 2.500000 3.578089
v 2.862471 1.969999 3.578089
v -2.576224 1.969999 3.578089
v -2.576224 2.500000 3.578089
v -2.862471 2.500000 3.578089
v -2.862471 1.969999 3.578089
v 2.576224 -0.000000 3.291841
v 2.862471 -0.000000 3.291841
v 2.862471 -0.000000 3.578089
v 2.576224 -0.000000 3.578089
v -2.576224 2.500000 3.291842
v -2.862471 2.500000 3.291842
v 2.576224 2.500000 3.291842
v 2.576224 2.500000 3.578089
v 0.686993 -0.000000 3.291841
v 0.686993 -0.000000 3.578089
v 2.576224 1.969999 3.578089
v 0.686993 1.970001 -3.578088
v 0.686993 2.500000 -3.578088
v -2.576224 2.500000 -3.578088
v -2.576224 1.970001 -3.578088
v -2.862471 -0.000000 3.291841
v -2.576224 -0.000000 3.291841
v -2.576224 -0.000000 3.578089
v -2.862471 -0.000000 3.578089
v -0.686993 2.500000 3.291842
v -0.686993 2.500000 3.578089
v -0.686993 1.969999 3.578089
v -0.686993 2.500000 -3.578088
v -2.576224 2.500000 -3.291840
v -0.686993 2.500000 -3.291840
v -0.686993 2.500000 1.073427
v -2.576224 2.500000 1.073427
v -2.862471 0.000001 -3.578088
v -2.576224 0.000001 -3.578088
v -2.576224 0.000001 -3.291841
v -2.862471 0.000001 -3.291841
v -2.862471 0.000000 1.073426
v -2.576224 0.000000 1.073426
v 0.686993 0.000001 -3.578088
v 2.576224 0.000001 -3.578088
v 2.576224 0.000001 -3.291841
v 0.686993 0.000001 -3.291841
v -0.686993 1.970000 3.291842
v -2.576224 1.970000 3.291842
v -2.576224 2.299999 3.291842
v -0.686993 2.299999 3.291842
v 2.576224 2.500000 -3.291840
v 2.862471 2.500000 -3.291840
v 2.862471 2.500000 1.073427
v 2.576224 2.500000 1.073427
v -2.862471 2.500000 1.073427
v 2.862471 0.000001 -3.578088
v 2.862471 0.000001 -3.291841
v 2.576224 0.000000 1.073426
v 2.862471 0.000000 1.073426
v 2.862471 1.970001 -3.291840
v 2.862471 1.970000 1.073427
v -2.862471 1.970000 3.291842
v -2.862471 1.970000 -0.357808
v -2.862471 2.500000 -0.357808
v 0.686993 2.300000 1.073427
v 2.576224 2.300000 1.073427
v 2.576224 2.299999 3.291842
v 0.686993 2.299999 3.291842
v -2.576224 1.970000 -0.357808
v -2.576224 1.970001 -3.291840
v -2.576224 2.300000 -3.291840
v -2.576224 2.300000 -0.357808
v 2.576224 1.970000 1.073427
v 2.576224 1.970000 3.291842
v 0.686993 1.970001 -3.291840
v 2.576224 1.970001 -3.291840
v 2.576224 2.300000 -3.291840
v 0.686993 2.300000 -3.291840
v -0.686993 1.970001 -3.291840
v -0.686993 2.300000 -3.291840
v -2.576224 2.300000 1.073427
v -0.686993 2.300000 1.073427
v 0.686993 1.970000 3.291842
v -0.686993 0.000001 -3.578088
v -0.686993 0.000001 -3.291841
v 0.686993 2.500000 1.073427
v 0.686993 2.500000 3.291842
v 0.686993 2.500000 -3.291840
v 0.686993 1.969999 3.578089
v 0.686993 2.500000 3.578089
v -0.686993 1.970001 -3.578088
v -0.686993 -0.000000 3.291841
v -0.686993 -0.000000 3.578089
v 2.576224 1.015373 3.578089
v 0.686993 1.015373 3.578089
v -2.576224 1.015375 -3.578088
v -0.686993 1.015375 -3.578088
v -0.686993 1.015373 3.578089
v -2.862471 1.015374 -0.357809
v -2.862471 1.015374 -3.291841
v -2.862471 1.015373 3.578089
v -2.862471 1.015373 3.291841
v 2.862471 1.015374 1.073427
v 2.862471 1.015373 3.291841
v 2.862471 1.015375 -3.578088
v 2.862471 1.015374 -3.291841
v -2.576224 1.015373 3.578089
v -2.862471 1.015375 -3.578088
v 0.686993 1.015375 -3.578088
v 2.576224 1.015375 -3.578088
v 2.862471 1.015373 3.578089
v 0.686993 1.015374 -3.291841
v 2.576224 1.015373 3.291841
v 0.686993 1.015373 3.291841
v -0.686993 1.015373 3.291841
v -2.576224 1.015374 -3.291841
v -0.686993 1.015374 -3.291841
v 2.576224 1.015374 -3.291841
v 2.576224 1.015374 1.073427
v -2.576224 1.015374 -0.357809
v -2.576224 1.015373 3.291841
v -2.576224 1.015374 1.073427
v -2.576224 1.970000 1.073427
v 2.576224 1.015374 -0.357809
v 2.576224 1.970000 -0.357808
v 2.862471 1.015374 -0.357809
v 2.862471 1.970000 -0.357808
v -2.862471 1.970000 1.073427
v -2.862471 1.015374 1.073427
v -0.686993 2.300000 -0.357808
v 0.686993 2.300000 -0.357808
v 2.576224 2.500000 -0.357808
v 0.686993 2.500000 -0.357808
v -0.686993 2.500000 -0.357808
v 2.576224 2.300000 -0.357808
v 2.862471 2.500000 -0.357808
v 2.576224 0.000000 -0.357809
v 2.862471 0.000000 -0.357809
v -2.576224 2.500000 -0.357808
v -2.862471 0.000000 -0.357809
v -2.576224 0.000000 -0.357809
v 2.576608 1.013022 1.074835
v 2.860736 1.013022 1.074835
v 2.576608 1.013022 -0.351723
v 2.860736 1.013022 -0.351723
v 2.576608 1.973013 1.071675
v 2.860736 1.973013 1.071675
v 2.576608 1.017484 1.073271
v 2.860736 1.017484 1.073271
v 2.576608 1.973013 -0.359837
v 2.860736 1.973013 -0.359837
v 2.576608 1.017484 -0.358241
v 2.860736 1.017484 -0.358241
v -0.683544 1.019634 3.577480
v 0.688873 1.019634 3.577480
v -0.683544 1.019634 3.292452
v 0.688873 1.019634 3.292452
v 0.688059 1.014056 3.577480
v 0.687315 1.970709 3.577480
v 0.688059 1.014056 3.292452
v 0.687315 1.970709 3.292452
v -0.687481 1.014056 3.577480
v -0.688225 1.970709 3.577480
v -0.687481 1.014056 3.292452
v -0.688225 1.970709 3.292452
vt 0.000000 0.000000
vt 1.000000 0.000000
vt 1.000000 1.000000
vt 0.000000 1.000000
vt 0.000000 0.000000
vt 1.000000 0.000000
vt 1.000000 1.000000
vt 0.000000 1.000000
vt 0.000000 0.000000
vt 1.000000 0.000000
vt 1.000000 1.000000
vt 0.000000 1.000000
vt 0.000000 0.000000
vt 1.000000 0.000000
vt 1.000000 1.000000
vt 0.000000 1.000000
vt 0.000000 0.000000
vt 1.000000 0.000000
vt 1.000000 1.000000
vt 0.000000 1.000000
vt 0.000000 0.000000
vt 1.000000 0.000000
vt 1.000000 1.000000
vt 0.000000 1.000000
vt 0.000000 0.000000
vt 1.000000 0.000000
vt 1.000000 1.000000
vt 0.000000 1.000000
vt 0.000000 0.000000
vt 1.000000 0.000000
vt 1.000000 1.000000
vt 0.000000 1.000000
vt 0.571865 0.237945
vt 0.625000 0.237945
vt 0.625000 0.250000
vt 0.571865 0.250000
vt 0.571865 0.481764
vt 0.625000 0.481764
vt 0.625000 0.500000
vt 0.571865 0.500000
vt 0.571865 0.733848
vt 0.625000 0.733848
vt 0.625000 0.750000
vt 0.571865 0.750000
vt 0.571865 0.942864
vt 0.625000 0.942864
vt 0.625000 1.000000
vt 0.571865 1.000000
vt 0.356764 0.733848
vt 0.375000 0.733848
vt 0.375000 0.750000
vt 0.356764 0.750000
vt 0.817864 0.733848
vt 0.875000 0.733848
vt 0.875000 0.750000
vt 0.817864 0.750000
vt 0.643236 0.733848
vt 0.643236 0.750000
vt 0.303586 0.733848
vt 0.303586 0.750000
vt 0.625000 0.768236
vt 0.571865 0.768236
vt 0.571865 0.428586
vt 0.625000 0.428586
vt 0.625000 0.307136
vt 0.571865 0.307136
vt 0.125000 0.733848
vt 0.182136 0.733848
vt 0.182136 0.750000
vt 0.125000 0.750000
vt 0.752288 0.733848
vt 0.752288 0.750000
vt 0.571865 0.877288
vt 0.625000 0.877288
vt 0.752288 0.500000
vt 0.817864 0.500000
vt 0.817864 0.512055
vt 0.752288 0.512055
vt 0.752288 0.622952
vt 0.817864 0.622952
vt 0.125000 0.500000
vt 0.182136 0.500000
vt 0.182136 0.512055
vt 0.125000 0.512055
vt 0.125000 0.622952
vt 0.182136 0.622952
vt 0.303586 0.500000
vt 0.356764 0.500000
vt 0.356764 0.512055
vt 0.303586 0.512055
vt 0.247712 0.733848
vt 0.182136 0.733848
vt 0.182136 0.733848
vt 0.247712 0.733848
vt 0.643236 0.500000
vt 0.643236 0.512055
vt 0.625000 0.512055
vt 0.625000 0.622952
vt 0.643236 0.622952
vt 0.875000 0.500000
vt 0.875000 0.512055
vt 0.875000 0.622952
vt 0.375000 0.500000
vt 0.375000 0.512055
vt 0.356764 0.622952
vt 0.375000 0.622952
vt 0.571865 0.512055
vt 0.571865 0.622952
vt 0.571865 0.000000
vt 0.625000 0.000000
vt 0.625000 0.016152
vt 0.571865 0.016152
vt 0.571865 0.182497
vt 0.625000 0.182497
vt 0.303586 0.622952
vt 0.356764 0.622952
vt 0.356764 0.733848
vt 0.303586 0.733848
vt 0.182136 0.567503
vt 0.182136 0.512055
vt 0.182136 0.512055
vt 0.182136 0.567503
vt 0.356764 0.622952
vt 0.356764 0.733848
vt 0.303586 0.512055
vt 0.356764 0.512055
vt 0.356764 0.512055
vt 0.303586 0.512055
vt 0.247712 0.512055
vt 0.247712 0.512055
vt 0.182136 0.622952
vt 0.247712 0.622952
vt 0.303586 0.733848
vt 0.247712 0.500000
vt 0.247712 0.512055
vt 0.696414 0.622952
vt 0.696414 0.733848
vt 0.696414 0.500000
vt 0.696414 0.512055
vt 0.571865 0.821414
vt 0.625000 0.821414
vt 0.696414 0.750000
vt 0.625000 0.372712
vt 0.571865 0.372712
vt 0.247712 0.733848
vt 0.247712 0.750000
vt 0.476468 0.768236
vt 0.476468 0.821414
vt 0.476468 0.307136
vt 0.476468 0.372712
vt 0.476468 0.182497
vt 0.476468 0.237945
vt 0.476468 0.000000
vt 0.476468 0.016152
vt 0.476468 0.622952
vt 0.476468 0.733848
vt 0.476468 0.500000
vt 0.476468 0.512055
vt 0.476468 0.877288
vt 0.476468 0.942864
vt 0.476468 0.250000
vt 0.476468 0.428586
vt 0.476468 0.481764
vt 0.476468 0.750000
vt 0.476468 1.000000
vt 0.303586 0.512055
vt 0.441862 0.463192
vt 0.356764 0.733848
vt 0.303586 0.733848
vt 0.182136 0.512055
vt 0.247712 0.512055
vt 0.356764 0.512055
vt 0.356764 0.622952
vt 0.182136 0.567503
vt 0.247712 0.733848
vt 0.182136 0.733848
vt 0.414786 0.434393
vt 0.182136 0.622952
vt 0.182136 0.622952
vt 0.571865 0.127048
vt 0.476468 0.127048
vt 0.247712 0.567503
vt 0.303586 0.567503
vt 0.643236 0.567503
vt 0.696414 0.567503
vt 0.752288 0.567503
vt 0.356764 0.567503
vt 0.356764 0.567503
vt 0.625000 0.127048
vt 0.571865 0.567503
vt 0.625000 0.567503
vt 0.356764 0.567503
vt 0.375000 0.567503
vt 0.817864 0.567503
vt 0.875000 0.567503
vt 0.125000 0.567503
vt 0.182136 0.567503
vt 0.476468 0.567503
vt 0.356764 0.567503
vt 0.375000 0.127048
vt 0.375000 0.182497
vt 0.375000 0.016152
vt 0.375000 0.237945
vt 0.375000 0.250000
vt 0.375000 0.481764
vt 0.375000 0.942864
vt 0.375000 1.000000
vt 0.375000 0.768236
vt 0.375000 0.428586
vt 0.375000 0.307136
vt 0.375000 0.877288
vt 0.375000 0.000000
vt 0.375000 0.821414
vt 0.375000 0.372712
vn 0.0000 1.0000 0.0000
vn 0.0000 -0.0017 -1.0000
vn -1.0000 -0.0008 0.0000
vn -1.0000 0.0000 0.0000
vn -0.7071 0.7071 0.0000
vn -0.5774 0.5774 -0.5774
vn -0.7071 0.0000 -0.7071
vn 0.0000 0.0000 -1.0000
vn 0.0000 0.7071 -0.7071
vn 0.5774 0.5774 -0.5774
vn 0.7071 -0.0000 -0.7071
vn 1.0000 0.0000 0.0000
vn 0.7071 0.7071 0.0000
vn 0.5774 0.5774 0.5774
vn 0.7071 -0.0000 0.7071
vn 0.0000 -0.0000 1.0000
vn 0.0000 0.7071 0.7071
vn -0.5774 0.5774 0.5774
vn -0.7071 -0.0000 0.7071
vn -0.3015 -0.9045 -0.3015
vn 0.7071 -0.7071 -0.0000
vn 0.5774 -0.5774 0.5774
vn 0.0000 -0.7071 0.7071
vn 0.0000 -0.7071 -0.7071
vn -0.3015 -0.3015 -0.9045
vn -0.7071 -0.7071 -0.0000
vn 0.3015 -0.9045 -0.3015
vn -0.5774 -0.5774 0.5774
vn -0.5774 -0.5774 -0.5774
vn 0.3015 -0.9045 0.3015
vn -0.3015 -0.9045 0.3015
vn 0.5774 -0.5774 -0.5774
vn -0.9045 -0.3015 0.3015
vn 0.0000 -1.0000 -0.0000
vn 0.9045 -0.3015 0.3015
vn -0.3015 -0.3015 0.9045
vn 0.3015 -0.3015 0.9045
vn 0.3015 -0.3015 -0.9045
vn -0.9045 0.3015 0.3015
vn 0.9045 0.3015 0.3015
vn 0.9045 0.3015 -0.3015
vn 0.9045 -0.3015 -0.3015
vn -0.9045 -0.3015 -0.3015
vn -0.9045 0.3015 -0.3015
usemtl None.001
s off
f 1/1/1 2/2/1 4/3/1 3/4/1
f 5/5/1 6/6/1 8/7/1 7/8/1
f 157/9/1 158/10/1 160/11/1 159/12/1
f 161/13/2 162/14/2 164/15/2 163/16/2
f 165/17/2 166/18/2 168/19/2 167/20/2
f 169/21/1 170/22/1 172/23/1 171/24/1
f 173/25/3 174/26/3 176/27/3 175/28/3
f 177/29/3 178/30/3 180/31/3 179/32/3
s 1
f 9/33/4 10/34/5 11/35/6 12/36/7
f 13/37/8 14/38/9 15/39/10 16/40/11
f 17/41/12 18/42/13 19/43/14 20/44/15
f 21/45/16 22/46/17 23/47/18 24/48/19
f 25/49/20 26/50/21 27/51/22 28/52/23
f 29/53/1 30/54/5 23/55/18 22/56/17
f 18/42/13 31/57/1 32/58/17 19/43/14
f 33/59/24 25/49/20 28/52/23 34/60/23
f 20/44/15 19/43/14 32/61/17 35/62/16
f 36/63/25 37/64/9 14/38/9 13/37/8
f 12/36/7 11/35/6 38/65/9 39/66/8
f 40/67/26 41/68/27 42/69/23 43/70/28
f 44/71/1 29/53/1 22/56/17 45/72/17
f 46/73/16 45/74/17 22/46/17 21/45/16
f 47/75/9 38/76/9 48/77/1 49/78/1
f 50/79/1 51/80/1 29/53/1 44/71/1
f 52/81/29 53/82/24 54/83/30 55/84/26
f 56/85/26 57/86/21 41/68/27 40/67/26
f 58/87/29 59/88/24 60/89/31 61/90/28
f 62/91/8 63/92/11 64/93/32 65/94/24
f 15/39/10 14/95/9 66/96/1 67/97/13
f 68/98/13 69/99/1 31/57/1 18/42/13
f 38/76/9 11/100/6 10/101/5 48/77/1
f 51/80/1 70/102/5 30/54/5 29/53/1
f 59/88/24 71/103/32 72/104/21 60/89/31
f 73/105/26 74/106/21 26/50/21 25/49/20
f 16/40/11 15/39/10 67/97/13 75/107/12
f 76/108/12 68/98/13 18/42/13 17/41/12
f 24/109/19 23/110/18 30/111/5 77/112/4
f 78/113/33 79/114/5 10/34/5 9/33/4
f 80/115/34 81/116/26 82/117/29 83/118/24
f 84/119/35 85/120/15 86/121/22 87/122/21
f 88/123/4 89/124/7 82/117/29 81/116/26
f 90/125/36 91/126/19 92/127/28 93/128/23
f 85/120/15 94/129/37 95/130/23 86/121/22
f 96/131/21 97/132/34 65/94/24 64/93/32
f 98/133/8 62/91/8 65/94/24 83/118/24
f 53/82/24 99/134/32 100/135/22 54/83/30
f 101/136/1 50/79/1 44/71/1 102/137/1
f 37/138/9 47/75/9 49/78/1 103/139/1
f 104/140/16 105/141/17 45/74/17 46/73/16
f 102/137/1 44/71/1 45/72/17 105/142/17
f 39/66/8 38/65/9 47/143/9 106/144/38
f 41/68/27 107/145/24 108/146/23 42/69/23
f 31/57/1 102/137/1 105/142/17 32/58/17
f 35/62/16 32/61/17 105/141/17 104/140/16
f 14/95/9 37/138/9 103/139/1 66/96/1
f 69/99/1 101/136/1 102/137/1 31/57/1
f 89/124/7 98/133/8 83/118/24 82/117/29
f 94/129/37 90/125/36 93/128/23 95/130/23
f 97/132/34 80/115/34 83/118/24 65/94/24
f 106/144/38 47/143/9 37/64/9 36/63/25
f 107/145/24 33/59/24 34/60/23 108/146/23
f 94/129/37 106/144/38 36/63/25 90/125/36
f 109/147/16 35/62/16 104/140/16 110/148/16
f 111/149/8 39/66/8 106/144/38 112/150/11
f 114/151/39 78/113/33 9/33/4 115/152/4
f 116/153/19 24/109/19 77/112/4 117/154/4
f 118/155/12 76/108/12 17/41/12 119/156/12
f 120/157/11 16/40/11 75/107/12 121/158/12
f 113/159/16 46/73/16 21/45/16 122/160/16
f 123/161/7 12/36/7 39/66/8 111/149/8
f 124/162/7 36/63/25 13/37/8 125/163/8
f 126/164/15 20/44/15 35/62/16 109/147/16
f 122/160/16 21/45/16 24/48/19 116/165/19
f 119/156/12 17/41/12 20/44/15 126/164/15
f 125/163/8 13/37/8 16/40/11 120/157/11
f 115/152/4 9/33/4 12/36/7 123/161/7
f 127/166/19 124/167/7 58/87/29 61/90/28
f 128/168/7 129/169/8 98/133/8 89/124/7
f 131/170/15 132/171/15 94/129/37 85/120/15
f 127/166/19 133/172/19 91/126/19 90/125/36
f 134/173/4 128/168/7 89/124/7 88/123/4
f 135/174/40 131/170/15 85/120/15 84/119/35
f 130/175/8 136/176/11 63/92/11 62/91/8
f 132/171/15 100/135/22 99/134/32 112/177/11
f 136/176/11 137/178/41 138/179/42 63/92/11
f 117/154/4 77/112/4 143/180/43 144/181/44
f 145/182/34 146/183/34 80/115/34 97/132/34
f 147/184/1 148/185/1 101/136/1 69/99/1
f 148/185/1 149/186/1 50/79/1 101/136/1
f 87/122/21 145/182/34 97/132/34 96/131/21
f 140/187/4 88/123/4 81/116/26 150/188/26
f 63/92/11 138/179/42 96/131/21 64/93/32
f 146/183/34 150/188/26 81/116/26 80/115/34
f 77/112/4 30/111/5 70/189/5 143/180/43
f 142/190/12 151/191/13 68/98/13 76/108/12
f 152/192/26 153/193/21 74/106/21 73/105/26
f 154/194/1 79/195/5 70/102/5 51/80/1
f 151/191/13 147/184/1 69/99/1 68/98/13
f 155/196/26 156/197/21 57/86/21 56/85/26
f 149/186/1 154/194/1 51/80/1 50/79/1
f 49/78/1 48/77/1 154/194/1 149/186/1
f 55/84/26 54/83/30 156/197/21 155/196/26
f 67/97/13 66/96/1 147/184/1 151/191/13
f 48/77/1 10/101/5 79/195/5 154/194/1
f 60/89/31 72/104/21 153/193/21 152/192/26
f 75/107/12 67/97/13 151/191/13 142/190/12
f 93/128/23 92/127/28 150/188/26 146/183/34
f 91/126/19 140/187/4 150/188/26 92/127/28
f 86/121/22 95/130/23 145/182/34 87/122/21
f 103/139/1 49/78/1 149/186/1 148/185/1
f 66/96/1 103/139/1 148/185/1 147/184/1
f 95/130/23 93/128/23 146/183/34 145/182/34
f 121/158/12 75/107/12 142/190/12 141/198/12
f 133/172/19 139/199/4 140/187/4 91/126/19
f 138/179/42 84/119/35 87/122/21 96/131/21
f 143/180/43 70/189/5 79/114/5 78/113/33
f 56/200/26 144/181/44 114/151/39 155/201/26
f 57/86/21 156/197/21 135/174/40 137/178/41
f 60/89/31 152/192/26 139/199/4 133/172/19
f 72/104/21 121/158/12 141/198/12 153/193/21
f 40/202/26 117/154/4 144/181/44 56/200/26
f 153/193/21 141/198/12 118/155/12 74/106/21
f 152/192/26 73/105/26 134/173/4 139/199/4
f 41/68/27 57/86/21 137/178/41 136/176/11
f 94/129/37 132/171/15 112/177/11 106/144/38
f 107/145/24 41/68/27 136/176/11 130/175/8
f 156/197/21 54/83/30 131/170/15 135/174/40
f 73/105/26 25/49/20 128/168/7 134/173/4
f 61/90/28 60/89/31 133/172/19 127/166/19
f 54/83/30 100/135/22 132/171/15 131/170/15
f 33/59/24 107/145/24 130/175/8 129/169/8
f 25/49/20 33/59/24 129/169/8 128/168/7
f 90/125/36 36/63/25 124/167/7 127/166/19
f 55/203/26 115/152/4 123/161/7 52/204/29
f 59/205/24 125/163/8 120/157/11 71/103/32
f 26/50/21 119/156/12 126/164/15 27/51/22
f 42/206/23 122/160/16 116/165/19 43/207/28
f 27/51/22 126/164/15 109/147/16 28/208/23
f 58/209/29 124/162/7 125/163/8 59/205/24
f 52/204/29 123/161/7 111/149/8 53/210/24
f 108/211/23 113/159/16 122/160/16 42/206/23
f 71/103/32 120/157/11 121/158/12 72/104/21
f 74/106/21 118/155/12 119/156/12 26/50/21
f 43/212/28 116/153/19 117/154/4 40/202/26
f 155/201/26 114/151/39 115/152/4 55/203/26
f 34/213/23 110/148/16 113/159/16 108/211/23
f 53/210/24 111/149/8 112/150/11 99/214/32
f 28/208/23 109/147/16 110/148/16 34/213/23
f 144/181/44 137/178/41 135/174/40 114/151/39
f 135/174/40 84/119/35 78/113/33 114/151/39
f 84/119/35 138/179/42 143/180/43 78/113/33
f 137/178/41 144/181/44 143/180/43 138/179/42
