# Blender v3.4.1 OBJ File: ''
# www.blender.org
mtllib wall3.mtl
o Plane.001_Plane.011
v 5.871683 2.302854 2.451328
v 5.871683 1.972404 2.451328
v 5.871683 2.302854 -0.838615
v 5.871683 1.972404 -0.838615
v 5.871683 0.991256 2.451328
v 5.871683 -0.003752 2.451328
v 5.871683 0.991256 -0.838615
v 5.871683 -0.003752 -0.838614
v 5.871683 2.302961 -0.812563
v 5.871683 0.021963 -0.812563
v 5.871683 2.302960 -7.581652
v 5.871683 0.021963 -7.581652
v 5.871683 2.302961 7.643684
v 5.871683 0.021963 7.643684
v 5.871683 2.302960 2.451552
v 5.871683 0.021963 2.451552
vt 0.000000 0.000000
vt 1.000000 0.000000
vt 1.000000 1.000000
vt 0.000000 1.000000
vt 0.000000 0.000000
vt 1.000000 0.000000
vt 1.000000 1.000000
vt 0.000000 1.000000
vt 0.000000 0.000000
vt 1.000000 0.000000
vt 1.000000 1.000000
vt 0.000000 1.000000
vt 0.000000 0.000000
vt 1.000000 0.000000
vt 1.000000 1.000000
vt 0.000000 1.000000
vn 1.0000 0.0000 0.0000
usemtl None
s off
f 1/1/1 2/2/1 4/3/1 3/4/1
f 5/5/1 6/6/1 8/7/1 7/8/1
f 9/9/1 10/10/1 12/11/1 11/12/1
f 13/13/1 14/14/1 16/15/1 15/16/1
