# Blender 3.4.1
# www.blender.org
mtllib wall_bed.mtl
o Plane.005
v -2.665860 -0.081952 3.962976
v -2.665860 4.918048 3.962976
v -3.168642 -0.081952 3.962976
v -3.168642 4.918048 3.962976
v -2.665860 -0.081952 -1.998053
v -2.665860 4.918048 -1.998053
v -3.168642 -0.081952 -1.998053
v -3.168642 4.918048 -1.998053
vn -0.0000 -0.0000 1.0000
vn -0.0000 -0.0000 -1.0000
vn 1.0000 -0.0000 -0.0000
vn 0.9950 -0.1001 -0.0000
vt 0.202533 0.586198
vt 0.030339 0.351228
vt 0.169536 0.608724
vt 0.000066 0.351598
vt 0.436606 0.252329
vt 0.010615 0.000066
vt 0.188531 0.182392
vt 0.436606 0.999934
vt 0.179466 0.151303
s 0
usemtl Material.002
f 1/1/1 2/2/1 4/4/1 3/3/1
f 7/8/2 8/9/2 6/7/2 5/5/2
f 5/5/3 6/7/3 2/2/3 1/1/3
f 6/7/4 2/2/4 4/4/4 1/1/4 3/3/4 7/8/4 5/6/4 8/9/4
