# Blender v3.4.1 OBJ File: ''
# www.blender.org
mtllib window2.mtl
o Cube_Cube.001
v -6.332449 0.989391 0.857251
v -6.332449 1.972664 0.857251
v -6.332449 0.989391 0.768119
v -6.332449 1.972664 0.768119
v -6.192429 0.989391 0.857251
v -6.192429 1.972664 0.857251
v -6.192429 0.989391 0.768119
v -6.192429 1.972664 0.768119
v -6.332448 1.525902 0.689246
v -6.332448 1.525285 -0.294027
v -6.332448 1.436770 0.689302
v -6.332448 1.436153 -0.293971
v -6.192429 1.525902 0.689246
v -6.192429 1.525285 -0.294027
v -6.192429 1.436770 0.689302
v -6.192429 1.436153 -0.293971
v -6.332448 1.525902 1.580727
v -6.332448 1.525285 0.597454
v -6.332448 1.436770 1.580783
v -6.332448 1.436153 0.597510
v -6.192429 1.525902 1.580727
v -6.192429 1.525285 0.597454
v -6.192429 1.436770 1.580783
v -6.192429 1.436153 0.597510
v -6.332448 1.525902 2.472209
v -6.332448 1.525285 1.488935
v -6.332448 1.436770 2.472265
v -6.332448 1.436153 1.488991
v -6.192429 1.525902 2.472209
v -6.192429 1.525285 1.488935
v -6.192429 1.436770 2.472265
v -6.192429 1.436153 1.488991
v -6.332448 0.989391 2.477573
v -6.332448 1.972664 2.477573
v -6.332448 0.989391 2.388442
v -6.332448 1.972664 2.388442
v -6.192429 0.989391 2.477573
v -6.192429 1.972664 2.477573
v -6.192429 0.989391 2.388442
v -6.192429 1.972664 2.388442
v -6.332448 0.989391 1.676527
v -6.332448 1.972664 1.676527
v -6.332448 0.989391 1.587395
v -6.332448 1.972664 1.587395
v -6.192429 0.989391 1.676527
v -6.192429 1.972664 1.676527
v -6.192429 0.989391 1.587395
v -6.192429 1.972664 1.587395
v -6.332448 0.989391 0.077791
v -6.332448 1.972664 0.077791
v -6.332448 0.989391 -0.011341
v -6.332448 1.972664 -0.011341
v -6.192429 0.989391 0.077791
v -6.192429 1.972664 0.077791
v -6.192429 0.989391 -0.011341
v -6.192429 1.972664 -0.011341
v -6.332448 1.525902 0.145918
v -6.332448 1.525285 -0.837356
v -6.332448 1.436770 0.145974
v -6.332448 1.436153 -0.837300
v -6.192429 1.525902 0.145918
v -6.192429 1.525285 -0.837356
v -6.192429 1.436770 0.145974
v -6.192429 1.436153 -0.837300
v -6.332448 0.989391 -0.737561
v -6.332448 1.972664 -0.737561
v -6.332448 0.989391 -0.826693
v -6.332448 1.972664 -0.826693
v -6.192429 0.989391 -0.737561
v -6.192429 1.972664 -0.737561
v -6.192429 0.989391 -0.826693
v -6.192429 1.972664 -0.826693
v -6.332448 1.973260 2.451163
v -6.332448 1.971223 -0.796180
v -6.332448 1.884128 2.451218
v -6.332448 1.882091 -0.796124
v -6.192429 1.973260 2.451163
v -6.192429 1.971223 -0.796180
v -6.192429 1.884128 2.451218
v -6.192429 1.882091 -0.796124
v -6.332448 1.107309 2.451163
v -6.332448 1.105273 -0.796180
v -6.332448 1.018178 2.451218
v -6.332448 1.016141 -0.796124
v -6.192429 1.107309 2.451163
v -6.192429 1.105273 -0.796180
v -6.192429 1.018178 2.451218
v -6.192429 1.016141 -0.796124
vt 0.375000 0.000000
vt 0.625000 0.000000
vt 0.625000 0.250000
vt 0.375000 0.250000
vt 0.625000 0.500000
vt 0.375000 0.500000
vt 0.625000 0.750000
vt 0.375000 0.750000
vt 0.625000 1.000000
vt 0.375000 1.000000
vt 0.125000 0.500000
vt 0.125000 0.750000
vt 0.875000 0.500000
vt 0.875000 0.750000
vt 0.375000 0.000000
vt 0.625000 0.000000
vt 0.625000 0.250000
vt 0.375000 0.250000
vt 0.625000 0.500000
vt 0.375000 0.500000
vt 0.625000 0.750000
vt 0.375000 0.750000
vt 0.625000 1.000000
vt 0.375000 1.000000
vt 0.125000 0.500000
vt 0.125000 0.750000
vt 0.875000 0.500000
vt 0.875000 0.750000
vt 0.375000 0.000000
vt 0.625000 0.000000
vt 0.625000 0.250000
vt 0.375000 0.250000
vt 0.625000 0.500000
vt 0.375000 0.500000
vt 0.625000 0.750000
vt 0.375000 0.750000
vt 0.625000 1.000000
vt 0.375000 1.000000
vt 0.125000 0.500000
vt 0.125000 0.750000
vt 0.875000 0.500000
vt 0.875000 0.750000
vt 0.375000 0.000000
vt 0.625000 0.000000
vt 0.625000 0.250000
vt 0.375000 0.250000
vt 0.625000 0.500000
vt 0.375000 0.500000
vt 0.625000 0.750000
vt 0.375000 0.750000
vt 0.625000 1.000000
vt 0.375000 1.000000
vt 0.125000 0.500000
vt 0.125000 0.750000
vt 0.875000 0.500000
vt 0.875000 0.750000
vt 0.375000 0.000000
vt 0.625000 0.000000
vt 0.625000 0.250000
vt 0.375000 0.250000
vt 0.625000 0.500000
vt 0.375000 0.500000
vt 0.625000 0.750000
vt 0.375000 0.750000
vt 0.625000 1.000000
vt 0.375000 1.000000
vt 0.125000 0.500000
vt 0.125000 0.750000
vt 0.875000 0.500000
vt 0.875000 0.750000
vt 0.375000 0.000000
vt 0.625000 0.000000
vt 0.625000 0.250000
vt 0.375000 0.250000
vt 0.625000 0.500000
vt 0.375000 0.500000
vt 0.625000 0.750000
vt 0.375000 0.750000
vt 0.625000 1.000000
vt 0.375000 1.000000
vt 0.125000 0.500000
vt 0.125000 0.750000
vt 0.875000 0.500000
vt 0.875000 0.750000
vt 0.375000 0.000000
vt 0.625000 0.000000
vt 0.625000 0.250000
vt 0.375000 0.250000
vt 0.625000 0.500000
vt 0.375000 0.500000
vt 0.625000 0.750000
vt 0.375000 0.750000
vt 0.625000 1.000000
vt 0.375000 1.000000
vt 0.125000 0.500000
vt 0.125000 0.750000
vt 0.875000 0.500000
vt 0.875000 0.750000
vt 0.375000 0.000000
vt 0.625000 0.000000
vt 0.625000 0.250000
vt 0.375000 0.250000
vt 0.625000 0.500000
vt 0.375000 0.500000
vt 0.625000 0.750000
vt 0.375000 0.750000
vt 0.625000 1.000000
vt 0.375000 1.000000
vt 0.125000 0.500000
vt 0.125000 0.750000
vt 0.875000 0.500000
vt 0.875000 0.750000
vt 0.375000 0.000000
vt 0.625000 0.000000
vt 0.625000 0.250000
vt 0.375000 0.250000
vt 0.625000 0.500000
vt 0.375000 0.500000
vt 0.625000 0.750000
vt 0.375000 0.750000
vt 0.625000 1.000000
vt 0.375000 1.000000
vt 0.125000 0.500000
vt 0.125000 0.750000
vt 0.875000 0.500000
vt 0.875000 0.750000
vt 0.375000 0.000000
vt 0.625000 0.000000
vt 0.625000 0.250000
vt 0.375000 0.250000
vt 0.625000 0.500000
vt 0.375000 0.500000
vt 0.625000 0.750000
vt 0.375000 0.750000
vt 0.625000 1.000000
vt 0.375000 1.000000
vt 0.125000 0.500000
vt 0.125000 0.750000
vt 0.875000 0.500000
vt 0.875000 0.750000
vt 0.375000 0.000000
vt 0.625000 0.000000
vt 0.625000 0.250000
vt 0.375000 0.250000
vt 0.625000 0.500000
vt 0.375000 0.500000
vt 0.625000 0.750000
vt 0.375000 0.750000
vt 0.625000 1.000000
vt 0.375000 1.000000
vt 0.125000 0.500000
vt 0.125000 0.750000
vt 0.875000 0.500000
vt 0.875000 0.750000
vn -1.0000 0.0000 0.0000
vn 0.0000 0.0000 -1.0000
vn 1.0000 0.0000 0.0000
vn 0.0000 0.0000 1.0000
vn 0.0000 -1.0000 0.0000
vn 0.0000 1.0000 0.0000
vn 0.0000 -1.0000 0.0006
vn 0.0000 1.0000 -0.0006
vn 0.0000 0.0006 1.0000
vn 0.0000 -0.0006 -1.0000
usemtl None
s off
f 1/1/1 2/2/1 4/3/1 3/4/1
f 3/4/2 4/3/2 8/5/2 7/6/2
f 7/6/3 8/5/3 6/7/3 5/8/3
f 5/8/4 6/7/4 2/9/4 1/10/4
f 3/11/5 7/6/5 5/8/5 1/12/5
f 8/5/6 4/13/6 2/14/6 6/7/6
f 9/15/1 10/16/1 12/17/1 11/18/1
f 11/18/7 12/17/7 16/19/7 15/20/7
f 15/20/3 16/19/3 14/21/3 13/22/3
f 13/22/8 14/21/8 10/23/8 9/24/8
f 11/25/9 15/20/9 13/22/9 9/26/9
f 16/19/10 12/27/10 10/28/10 14/21/10
f 17/29/1 18/30/1 20/31/1 19/32/1
f 19/32/7 20/31/7 24/33/7 23/34/7
f 23/34/3 24/33/3 22/35/3 21/36/3
f 21/36/8 22/35/8 18/37/8 17/38/8
f 19/39/9 23/34/9 21/36/9 17/40/9
f 24/33/10 20/41/10 18/42/10 22/35/10
f 25/43/1 26/44/1 28/45/1 27/46/1
f 27/46/7 28/45/7 32/47/7 31/48/7
f 31/48/3 32/47/3 30/49/3 29/50/3
f 29/50/8 30/49/8 26/51/8 25/52/8
f 27/53/9 31/48/9 29/50/9 25/54/9
f 32/47/10 28/55/10 26/56/10 30/49/10
f 33/57/1 34/58/1 36/59/1 35/60/1
f 35/60/2 36/59/2 40/61/2 39/62/2
f 39/62/3 40/61/3 38/63/3 37/64/3
f 37/64/4 38/63/4 34/65/4 33/66/4
f 35/67/5 39/62/5 37/64/5 33/68/5
f 40/61/6 36/69/6 34/70/6 38/63/6
f 41/71/1 42/72/1 44/73/1 43/74/1
f 43/74/2 44/73/2 48/75/2 47/76/2
f 47/76/3 48/75/3 46/77/3 45/78/3
f 45/78/4 46/77/4 42/79/4 41/80/4
f 43/81/5 47/76/5 45/78/5 41/82/5
f 48/75/6 44/83/6 42/84/6 46/77/6
f 49/85/1 50/86/1 52/87/1 51/88/1
f 51/88/2 52/87/2 56/89/2 55/90/2
f 55/90/3 56/89/3 54/91/3 53/92/3
f 53/92/4 54/91/4 50/93/4 49/94/4
f 51/95/5 55/90/5 53/92/5 49/96/5
f 56/89/6 52/97/6 50/98/6 54/91/6
f 57/99/1 58/100/1 60/101/1 59/102/1
f 59/102/7 60/101/7 64/103/7 63/104/7
f 63/104/3 64/103/3 62/105/3 61/106/3
f 61/106/8 62/105/8 58/107/8 57/108/8
f 59/109/9 63/104/9 61/106/9 57/110/9
f 64/103/10 60/111/10 58/112/10 62/105/10
f 65/113/1 66/114/1 68/115/1 67/116/1
f 67/116/2 68/115/2 72/117/2 71/118/2
f 71/118/3 72/117/3 70/119/3 69/120/3
f 69/120/4 70/119/4 66/121/4 65/122/4
f 67/123/5 71/118/5 69/120/5 65/124/5
f 72/117/6 68/125/6 66/126/6 70/119/6
f 73/127/1 74/128/1 76/129/1 75/130/1
f 75/130/7 76/129/7 80/131/7 79/132/7
f 79/132/3 80/131/3 78/133/3 77/134/3
f 77/134/8 78/133/8 74/135/8 73/136/8
f 75/137/9 79/132/9 77/134/9 73/138/9
f 80/131/10 76/139/10 74/140/10 78/133/10
f 81/141/1 82/142/1 84/143/1 83/144/1
f 83/144/7 84/143/7 88/145/7 87/146/7
f 87/146/3 88/145/3 86/147/3 85/148/3
f 85/148/8 86/147/8 82/149/8 81/150/8
f 83/151/9 87/146/9 85/148/9 81/152/9
f 88/145/10 84/153/10 82/154/10 86/147/10
